<svg xmlns="http://www.w3.org/2000/svg" width="1024" height="1024" viewBox="0 0 1024 1024" fill="none"><path d="M415.035 173.431C415.729 173.427 416.578 173.374 417.272 173.504C419.47 173.916 421.257 175.536 422.41 177.392C424.857 181.333 424.854 186.524 423.695 190.864C422.593 190.803 421.797 190.706 421.022 189.882C417.595 186.237 415.013 178.269 415.035 173.431Z" fill="#F3B09D"></path><path d="M611.437 174.344C612.633 174.322 613.516 174.365 614.659 174.725C615.37 175.314 615.867 175.743 616.174 176.657C617.717 181.255 613.18 188.752 610.9 192.668C609.514 193.356 609.325 193.546 607.815 193.34L607.211 192.25C606.867 186.469 609.241 179.624 611.437 174.344Z" fill="#F3B09D"></path><path d="M513.287 163.193L516.028 163.396C517.194 164.121 517.725 164.958 518.159 166.237C520.066 171.855 519.431 180.327 516.768 185.552C516.497 185.628 516.234 185.744 515.954 185.78C514.861 185.922 513.97 185.576 513.278 184.702C510.183 180.796 512.372 167.83 513.287 163.193Z" fill="#F3B09D"></path><path d="M695.241 224.204C696.152 224.353 696.764 224.579 697.607 224.927C698.125 225.771 698.418 226.009 698.458 227.036C698.689 232.914 690.23 244.48 686.356 248.711C686.316 248.72 686.276 248.736 686.234 248.737C684.906 248.766 684.853 248.786 683.899 247.917C683.371 244.241 692.747 227.619 695.241 224.204Z" fill="#F3B09D"></path><path d="M336.888 225.026C337.452 225.211 337.943 225.437 338.428 225.783C341.639 228.073 350.282 237.493 350.243 241.754C350.23 243.179 349.285 243.798 348.382 244.722C346.015 244.135 344.59 243.377 342.92 241.581C340.268 238.729 334.246 232.068 334.775 228.019C334.956 226.633 335.92 225.891 336.888 225.026Z" fill="#F3B09D"></path><path d="M180.496 467.784C182.636 467.647 184.824 467.444 186.967 467.466C189.175 467.489 192.124 468.42 193.637 470.037C193.719 470.845 193.954 471.078 193.369 471.746C191.43 473.961 187.668 473.981 184.933 474.349C182.056 474.701 176.261 475.978 173.678 474.564C172.489 473.913 171.898 473.303 171.495 471.986C171.113 470.737 171.603 469.737 172.17 468.678C174.3 467.405 177.993 467.864 180.496 467.784Z" fill="#F3B09D"></path><path d="M822.088 368.628C822.518 368.642 823.233 368.643 823.634 368.76C824.75 369.086 825.75 370.24 826.092 371.338C826.436 372.445 826.316 373.222 825.641 374.155C823.182 377.558 804.118 381.112 799.72 382.148C798.712 382.306 797.742 382.537 796.737 382.246C796.03 382.042 796.238 382.012 795.822 381.236C795.931 380.743 795.921 380.64 796.219 380.139C799.857 374.014 815.558 369.935 822.088 368.628Z" fill="#F3B09D"></path><path d="M206.655 370.735C207.986 370.804 209.252 370.974 210.546 371.292C216.393 372.733 231.158 375.579 234.166 380.609C234.238 382.335 233.895 382.618 233.016 384.051C230.828 384.783 228.445 384.233 226.245 383.812C221.385 382.881 208.917 380.695 206.375 375.866C205.496 374.195 206.158 372.404 206.655 370.735Z" fill="#F3B09D"></path><path d="M871.393 354.692C872.52 354.52 873.529 354.383 874.672 354.456C875.889 354.533 875.392 354.307 876.218 355.222C874.339 358.593 845.992 368.009 840.568 369.996C839.783 370.083 838.745 370.145 837.981 369.954C836.715 369.638 836.215 368.789 835.575 367.763C835.47 366.355 835.611 365.451 836.526 364.352C841.183 358.758 863.93 355.508 871.393 354.692Z" fill="#F3B09D"></path><path d="M253.208 277.315C258.592 277.56 268.622 286.316 273.314 289.8C275.87 291.698 280.671 294.574 281.042 297.956C281.233 299.703 280.215 300.861 279.159 302.087C274.576 300.52 257.193 288.482 252.48 284.925C251.604 284.263 250.711 283.714 250.589 282.563C250.343 280.229 251.783 278.957 253.208 277.315Z" fill="#F3B09D"></path><path d="M872.486 468.626C879.111 468.426 915.593 468.64 919.89 470.188L920.2 470.911C919.088 472.208 917.536 472.41 915.955 472.833C909.24 474.059 875.893 477.778 871.134 473.735C870.173 472.919 870.193 472.429 870.181 471.293C870.853 470.094 871.397 469.465 872.486 468.626Z" fill="#F3B09D"></path><path d="M778.207 276.514C779.918 276.353 781.457 276.231 782.843 277.442C783.952 278.412 783.966 278.721 784.041 280.091C782.764 282.761 759.824 298.831 755.318 302.097C754.911 302.316 754.284 302.676 753.855 302.801C752.504 303.194 752.08 302.892 750.937 302.271C750.464 301.245 750.277 301.021 750.642 299.882C752.536 293.98 772.342 279.424 778.207 276.514Z" fill="#F3B09D"></path><path d="M205.082 245.897C205.623 245.866 205.875 245.831 206.454 245.909C211.806 246.63 243.087 266.294 245.508 271.008C246.22 272.393 245.914 272.926 245.578 274.375C244.322 274.922 242.505 275.699 241.104 275.535C236.262 274.966 208.742 250.731 205.082 245.897Z" fill="#F3B09D"></path><path d="M730.87 172.431C731.093 172.805 731.203 172.893 731.238 173.345C731.426 175.787 711.007 211.539 708.303 214.083C706.64 215.648 704.845 215.321 702.742 215.206C701.786 214.075 701.395 213.197 701.475 211.682C701.8 205.476 725.317 177.194 730.87 172.431Z" fill="#F3B09D"></path><path d="M144.291 467.719C146.278 467.606 148.342 467.402 150.33 467.495C152.344 467.589 153.871 468.387 155.224 469.835C155.558 471.158 155.554 471.173 154.996 472.419C150.271 476.329 126.387 475.702 119.877 475.287C115.719 474.96 109.899 474.679 106.752 471.707L106.762 470.819C107.708 470.028 108.598 469.803 109.793 469.636C113.55 469.111 117.463 469.541 121.251 469.301C128.943 468.813 136.583 468.044 144.291 467.719Z" fill="#F3B09D"></path><path d="M827.536 245.529C827.807 245.828 827.906 246.368 828.036 246.751C826.49 250.267 805.277 267.289 800.816 271.087C797.251 274.123 794.307 277.271 789.353 276.881C789.017 276.431 788.988 276.42 788.681 275.849C787.919 274.429 787.499 272.631 788.142 271.091C790.736 264.873 819.83 249.33 827.536 245.529Z" fill="#F3B09D"></path><path d="M147.723 349.692C148.6 349.718 149.466 349.764 150.333 349.909C155.918 350.844 161.714 354.208 167.147 356.006C175.351 358.721 184.482 360.295 192.38 363.707C193.661 364.26 194.959 365.193 195.617 366.465C196.306 367.797 195.839 369.144 195.433 370.465C194.645 370.652 194.773 370.638 193.855 370.773C187.466 371.715 153.613 358.175 148.022 353.822C147.214 352.461 147.545 351.183 147.723 349.692Z" fill="#F3B09D"></path><path d="M295.047 167.721C303.456 171.373 316.437 191.474 322.526 199.231C324.668 201.96 330.561 207.716 331.494 210.737C331.898 212.045 331.465 212.929 330.835 214.042C330.148 214.413 329.457 214.792 328.747 215.117C327.821 215.543 326.544 215.885 325.582 215.364C324.053 214.534 322.92 212.754 321.934 211.343C317.686 205.263 314.104 198.661 310.117 192.4C305.824 185.66 300.969 179.137 296.977 172.226C296.154 170.801 295.573 169.276 295.047 167.721Z" fill="#F3B09D"></path><path d="M634.563 110.279C634.821 110.745 634.959 110.905 635.021 111.505C635.515 116.294 626.821 158.197 623.561 161.217C622.08 162.589 620.783 162.475 618.932 162.289C618.335 161.203 617.765 160.128 617.633 158.876C616.844 151.372 629.598 116.235 634.563 110.279Z" fill="#F3B09D"></path><path d="M815.373 467.715C821.451 467.035 828.135 467.867 834.24 468.107C840.589 468.357 847.075 468.294 853.397 468.845C855.175 469 855.862 468.943 856.978 470.312C857.285 471.821 857.344 472.52 856.88 474.046C854.557 475.868 848.283 475.053 845.25 474.997C836.505 475.002 808.65 475.836 802.019 472.069L801.852 471.344C801.978 471.183 802.088 471.008 802.23 470.861C805.192 467.799 811.461 467.927 815.373 467.715Z" fill="#F3B09D"></path><path d="M514.847 89.8561C517.569 98.7654 520.592 134.831 518.271 143.912C517.603 146.524 516.771 147.747 514.44 149.12C513.423 148.309 512.342 147.344 511.699 146.201C506.076 136.22 511.512 101.704 514.847 89.8561Z" fill="#F3B09D"></path><path d="M394.507 107.696C398.698 109.373 402.551 119.297 404.39 123.376C408.022 131.429 417.927 156.076 414.859 164.254C413.53 164.259 412.065 164.309 410.848 163.677C409.204 162.823 408.598 161.122 407.979 159.513C404.774 151.171 403.081 142.102 400.547 133.523C398.403 126.267 395.279 118.871 393.87 111.445C393.587 109.951 393.908 109.065 394.507 107.696Z" fill="#F3B09D"></path><path d="M519.357 581.656C531.349 581.029 543.794 583.566 553.966 590.15C557.046 589.437 560.021 588.872 563.189 588.764C570.071 588.529 593.983 590.251 599.082 593.624C600.235 594.387 600.466 594.983 600.805 596.275C600.407 597.678 600.099 598.21 599.004 599.177C593.775 599.971 588.353 596.993 583.127 596.61C582.958 596.598 582.788 596.592 582.619 596.582C575.285 595.697 566.654 594.759 559.62 597.515C557.352 598.403 555.187 599.985 553.03 601.155C551.87 599.617 550.677 597.76 549.211 596.497C542.363 590.598 528.318 588.633 519.637 589.968C515.787 590.56 507.71 594.204 504.197 592.689C503.452 592.368 503.574 592.02 503.372 591.318C503.603 590.468 503.827 589.846 504.342 589.118C507.764 584.276 513.757 582.459 519.357 581.656Z" fill="#F3B09D"></path><path d="M374.374 591.828C375.103 591.179 375.765 590.467 376.497 589.824C379.853 586.876 384.945 586.032 389.265 586.404C397.046 587.072 402.507 590.414 407.536 596.195C413.373 595.094 419.714 594.504 425.647 594.886C427.859 595.028 430.136 595.8 431.582 597.595C432.294 598.48 432.237 598.653 432.102 599.706C429.091 601.97 417.212 601.138 412.828 601.819L411.887 601.97L403.076 603.848C401.204 601.958 399.293 599.863 397.213 598.2C392.841 594.702 388.96 594.687 383.668 595.113C382.296 596.624 380.789 598.517 379.18 599.761C375.017 602.982 365.007 594.787 359.19 593.829C348.723 592.106 342.665 599.947 338.939 599.047C337.559 598.714 337.264 598.176 336.581 597.071C336.548 596.174 336.601 595.649 337.009 594.823C339.242 590.31 346.4 587.787 350.956 586.559C360.01 586.161 366.119 588.541 374.374 591.828Z" fill="#F3B09D"></path><path d="M696.425 604.716C710.427 603.507 721.434 605.878 732.531 614.44C748.598 608.449 756.753 610.815 772.172 616.977C774.622 617.956 778.112 618.946 779.209 621.504C778.842 623.004 778.78 623.157 777.658 624.21C771.244 626.235 760.589 620.313 754.09 618.621C745.909 617.941 740.191 619.328 733.434 623.986C729.54 622.055 726.328 618.904 722.625 616.6C713.496 610.92 700.904 609.649 690.545 611.967C686.325 612.911 682.282 614.526 678.071 615.482C676.517 615.835 674.031 616.29 672.761 615.051C671.783 614.097 671.817 613.441 671.885 612.216C674.461 608.289 680.605 607.309 684.829 606.1C688.66 605.003 692.47 604.919 696.425 604.716Z" fill="#F3B09D"></path><path d="M472.249 619.698C474.534 619.48 477.791 618.909 479.703 620.56C480.637 621.366 480.974 622.266 481.148 623.431C480.307 624.897 479.228 625.493 477.596 625.909C472.168 627.293 465.889 626.732 460.301 627.108C453.776 627.548 447.223 628.297 440.692 628.803C414.007 630.87 386.892 634.865 361.343 643.062C359.752 643.701 357.678 644.72 355.936 644.175C354.367 643.685 352.962 642.484 352.37 640.968C352.497 640.136 352.454 639.814 352.972 639.106C355.259 635.977 361.498 634.677 365.104 633.596C389.167 626.384 419.691 623.107 444.869 621.294C453.998 620.637 463.141 620.684 472.249 619.698Z" fill="#F3B09D"></path><path d="M243.307 612.953C243.517 612.944 243.727 612.927 243.938 612.925C245.391 612.913 246.771 613.198 247.678 614.471C248.376 615.451 248.524 616.678 248.134 617.81C246.932 621.295 234.758 624.395 230.828 626.023C218.434 631.058 206.23 636.516 194.215 642.398C182.201 648.281 170.405 654.573 158.828 661.276C165.956 664.323 172.589 668.584 179.241 672.535C189.179 678.438 199.036 684.376 208.597 690.879C227.988 678.128 250.895 668.868 272.618 660.904C276.997 659.298 296.879 653.416 299.085 651.882L300.675 650.791L301.497 650.216C303.882 650.09 306.702 650.372 308.485 652.21C309.451 653.206 309.427 653.479 309.333 654.752C308.413 656.15 307.152 656.881 305.631 657.513C301.289 659.317 296.286 660.093 291.747 661.344C286.936 662.67 282.213 664.481 277.497 666.111C255.193 673.822 234.429 683.664 214.192 695.731C219.03 698.557 223.581 702.368 228.018 705.783C239.39 714.537 250.282 723.839 261.404 732.9C269.632 730.242 277.28 726.194 285.241 722.875C293.17 719.569 301.415 716.781 309.5 713.874C354.484 697.694 400.886 686.575 448.669 683.202C456.078 682.679 464.502 681.306 471.849 681.952C473.416 682.089 474.844 682.326 475.922 683.552C476.048 684.467 476.218 685.277 475.86 686.171C475.411 687.29 474.533 687.931 473.41 688.264C470.702 689.067 455.662 689.321 451.804 689.627C392.894 694.311 321.678 711.518 268.905 738.182C277.31 747.08 286.864 755.024 296.198 762.919C305.376 770.681 314.663 778.624 324.499 785.544C328.722 788.515 333.334 790.911 337.616 793.803C344.198 798.248 350.568 802.918 357.315 807.122C367.548 813.215 377.963 819.592 388.811 824.519C395.973 827.771 403.237 830.234 410.616 832.892C414.144 834.163 420.918 836.495 422.133 840.467C422.513 841.708 422.393 841.929 421.78 842.956C420.097 843.938 418.541 844.182 416.594 844.131C408.672 843.926 400.226 839.969 393.002 836.911C349.094 818.324 293.487 776.365 260.396 741.997C255.428 743.855 250.597 746.673 245.864 749.077C234.635 754.778 223.71 760.483 212.999 767.136C212.093 766.268 210.98 765.177 210.369 764.067C209.691 762.837 209.807 762.053 210.102 760.744C213.967 757.721 219.06 755.631 223.371 753.225C233.424 747.516 243.552 741.943 253.754 736.505C244.072 727.491 218.253 705.737 206.964 700.144L206.222 700.49C201.625 702.607 197.354 705.638 193.15 708.444C176.528 719.536 161.875 732.082 148.125 746.577C146 746.268 142.794 745.989 141.258 744.408C141.272 743.837 141.236 743.811 141.465 743.183C142.54 740.233 147.921 736.169 150.25 734.024C164.342 721.051 183.658 703.745 201.118 695.705C184.866 684.629 168.913 674.426 151.21 665.816C147.619 667.569 144.133 669.512 140.754 671.646C136.995 674.048 120.161 686.652 117.251 687.057C115.73 687.269 115.459 687.062 114.237 686.275C113.51 685.065 113.159 684.474 113.116 683.016C114.738 678.422 137.812 665.287 143.074 662.339C134.865 657.736 125.467 653.917 116.58 650.822C113.512 649.753 106.145 649.828 104.387 647.172C103.609 645.996 103.62 644.918 103.799 643.589C104.353 642.883 104.482 642.554 105.332 642.175C112.189 639.115 143.948 653.356 151.506 656.628C164.279 650.4 176.671 643.288 189.451 637.02C207.126 628.35 225.213 620.685 243.307 612.953Z" fill="#F3B09D"></path><path d="M581.555 628.518C595.755 627.318 620.461 631.021 635.073 633.554C659.777 637.69 684.202 643.09 708.347 649.753C720.711 653.298 732.774 657.78 744.809 662.296C767.33 670.747 789.347 679.938 810.409 691.631C828.196 680.686 845.477 669.163 863.97 659.419C859.111 657.228 824.601 642.41 823.104 640.533C822.342 639.577 822.003 638.563 822.283 637.338C822.527 636.273 823.342 635.38 824.348 634.974C825.285 634.595 826.141 634.67 827.095 634.907C833.374 636.47 839.665 640.243 845.513 642.947C854.42 647.048 863.395 650.997 872.436 654.794C883.199 650.082 896.75 644.285 908.157 641.972C909.697 641.66 910.634 641.954 911.917 642.782C912.535 643.942 913.023 645.049 912.728 646.408C912.493 647.492 911.97 647.943 911.037 648.406C908.122 649.851 904.521 650.645 901.424 651.69C894.069 654.17 886.942 656.964 880.36 661.128C885.286 663.766 907.699 676.287 909.616 680.397C910.139 681.52 909.737 682.42 909.317 683.487C908.532 684.054 908.315 684.352 907.317 684.476C901.865 685.153 878.189 668.281 872.671 664.246C853.049 671.585 835.333 683.928 818.542 696.239C824.254 698.814 829.744 701.796 835.013 705.186C846.277 712.395 856.681 720.575 867.07 728.964C869.533 730.953 872.531 732.583 874.734 734.836C875.545 735.666 876.301 736.754 876.407 737.941C876.566 739.704 875.343 740.873 874.222 742.015C871.813 743.001 869.787 742.594 867.665 741.118C863.664 738.336 860.464 733.919 856.734 730.697C843.114 718.928 828.138 707.144 811.294 700.387C795.912 711.137 781.637 723.188 767.358 735.336C773.881 738.639 804.317 753.358 807.484 758.467C808.146 759.535 808.147 761.143 807.664 762.3C807.131 763.576 806.628 763.623 805.431 764.062C800.564 763.446 771.701 744.56 763.472 740.777L762.737 740.443C751.47 752.658 741.109 765.536 729.483 777.453C705.103 802.271 675.908 817.47 644.997 832.549C634.244 837.794 622.797 844.036 611.032 846.488C609.309 845.939 607.305 845.443 605.909 844.241C604.731 843.226 604.515 842.319 604.393 840.825C604.891 839.521 605.373 838.659 606.421 837.712C611.382 833.23 622.948 831.211 629.404 829.079C643.03 824.579 656.019 818.47 668.688 811.762C688.164 801.451 707.227 787.221 722.468 771.299C733.099 760.194 742.758 748.176 753.372 737.04C742.72 730.804 723.842 724.883 711.67 720.769C702.479 717.662 693.411 714.157 684.182 711.178C669.383 706.401 653.662 702.283 638.425 699.23C616.648 694.867 594.954 693.33 572.847 692.025C570.387 691.88 565.652 691.931 563.955 690.021C563.433 688.572 563.498 687.885 563.733 686.416C564.493 685.538 564.749 685.205 565.909 684.872C569.266 683.909 579.414 685.55 583.676 685.768C599.637 686.586 616.272 687.907 632.006 690.753C642.84 692.713 653.385 695.759 664.004 698.611C684.482 704.111 703.123 709.847 723.087 717.04C735.569 721.537 748.47 725.583 760.297 731.644C774.362 719.809 788.898 708.332 803.452 697.105C797.414 693.03 790.316 689.882 783.817 686.611C750.317 669.747 716.653 659.003 680.323 650.138C666.864 646.854 653.565 643.571 639.868 641.375C627.974 639.468 615.991 637.403 604.016 636.14C597.747 635.479 590.689 636.06 584.608 634.575C583.017 634.186 581.922 633.769 581.02 632.316C580.795 630.837 581.104 629.894 581.555 628.518Z" fill="#F3B09D"></path><path d="M514.82 630.199C514.878 630.228 514.936 630.259 514.995 630.288C516.161 630.861 516.855 631.295 517.578 632.401C522.47 639.888 526.04 649.33 529.812 657.481C540.437 680.44 549.955 703.948 560.906 726.743C582.279 728.583 604.561 727.556 626.06 727.792C633.897 727.878 646.66 727.808 652.403 734.05C653.977 735.761 654.91 737.9 654.66 740.251C654.467 742.058 653.687 743.654 652.591 745.082C649.338 749.317 644.939 753.066 641.067 756.734C632.29 765.047 622.96 773.146 614.891 782.134C601.304 797.267 591.613 814.819 579.304 830.861C567.203 846.63 552.504 860.633 541.783 877.42C536.444 885.781 519.509 925.29 515.812 928.068C514.296 928.418 513.473 927.926 512.142 927.297C509.182 921.393 506.952 915.063 504.21 909.043C500.576 901.064 496.392 893.183 492.219 885.471C481.642 865.928 468.186 846.875 454.27 829.569C448.738 822.69 442.792 816.139 437.112 809.381C428.744 799.425 421.441 789.105 411.955 780.07L387.627 757.079C382.978 752.663 377.501 748.137 373.707 742.972C372.48 741.302 371.236 739.182 371.163 737.048C371.135 736.251 371.17 735.226 371.777 734.661C373.893 732.696 378.51 732.158 381.351 731.868C386.435 731.349 391.664 731.495 396.771 731.395C406.808 731.18 416.847 731.058 426.886 731.027C440.901 730.937 455.106 730.048 469.085 730.946C478.696 707.752 489.605 684.906 500.207 662.149C505.119 651.606 509.33 640.436 514.82 630.199Z" fill="#F3B09D"></path><path d="M571.623 741.526C572.534 741.934 573.125 742.428 573.918 743.036C575.98 743.203 579.767 743.94 581.209 745.54C582.102 746.53 584.041 746.679 585.372 746.995C586.009 747.786 586.227 748.177 586.347 749.191L585.279 749.458C583.733 749.129 582.634 748.995 581.507 747.777L581.705 747.274L581.315 746.946C578.366 748.126 577.717 751.601 574.194 752.253C573.122 751.818 573.054 751.866 572.511 750.861C573.208 749.913 574.769 749.459 575.848 748.921L575.568 747.512C574.516 747.043 573.927 747.375 572.926 747.834C572.729 747.925 572.542 748.036 572.35 748.137C572.4 745.976 572.521 743.991 571.775 741.918C571.728 741.786 571.674 741.657 571.623 741.526Z" fill="#F6B99C"></path><path d="M571.394 731.009C576.264 731.353 579.328 736.632 583.354 736.639C583.168 736.189 582.803 735.374 582.742 734.908C582.606 733.88 582.841 733.424 583.54 732.765L585.757 733.194C586.998 732.707 588.047 731.904 589.138 731.153L589.734 731.164C591.746 731.202 591.782 734.024 592.819 735.243C593.145 735.626 599.943 736.027 602.388 738.122L602.464 739.247L601.57 739.703C598.186 739.671 591.581 740.834 588.958 738.601C588.748 737.425 588.504 736.269 588.239 735.106C587.558 736.05 586.409 737.987 585.396 738.565C583.604 739.588 580.403 738.432 578.544 737.953L577.214 739.69C575.285 740.3 570.05 739.216 567.971 738.679L567.635 737.845C568.248 736.884 568.652 736.266 569.542 735.525C569.785 735.322 570.05 735.146 570.284 734.933C571.673 733.669 571.337 732.773 571.394 731.009Z" fill="#F6B99C"></path><path d="M570.401 827.578L570.913 828.063C567.838 834.064 556.965 845.382 552.166 851.208C536.447 870.291 523.623 890.765 514.943 914.007L513.229 908.875C511.382 904.124 508.987 899.65 506.408 895.262C509.823 889.671 512.129 883.235 515.201 877.408C527.663 853.774 544.333 835.674 570.401 827.578Z" fill="#FEFEFE"></path><path d="M520.075 655.887C523.99 659.666 552.333 726.783 556.262 736.3C558.908 742.71 561.071 749.31 563.849 755.661C549.472 755.278 535.451 753.869 521.034 754.808C521.059 732.693 520.895 710.58 520.544 688.469C520.386 677.643 519.721 666.704 520.075 655.887Z" fill="#FEFEFE"></path><path d="M516.734 762.214C526.63 761.18 537.358 762.14 547.274 762.763C511.185 768.46 475.918 785.612 448.458 809.663C447.11 809.161 446.666 808.377 445.738 807.299C438.802 796.109 425.676 782.78 416.734 772.81C424.123 772.749 432.629 771.375 439.259 775.208C470.521 759.963 484.515 764.497 516.734 762.214Z" fill="#FEFEFE"></path><path d="M512.474 654.795L512.939 655.038C514.29 657.058 513.275 743.782 513.192 754.986C497.837 754.933 482.432 756.201 467.126 757.343C466.494 757.239 466.873 757.363 466.122 756.693C466.76 752.893 508.101 661.039 512.474 654.795Z" fill="#FEFEFE"></path><path d="M578.748 794.213C583.895 794.012 588.948 794.282 594.082 794.584C588.699 802.028 583.992 809.957 578.614 817.429C574.516 817.168 570.786 818.501 566.978 819.848C544.725 827.717 526.632 842.868 514.461 863.089C509.762 870.896 506.049 879.192 502.12 887.398C501.389 885.77 500.677 884.134 499.982 882.49C493.666 871.837 487.04 861.38 480.104 851.12C485.124 846.377 489.201 840.465 493.843 835.33C515.962 810.862 545.785 796.018 578.748 794.213Z" fill="#FEFEFE"></path><path d="M568.593 766.787C583.447 765.461 600.346 767.005 614.854 770.334C609.509 775.564 604.88 781.148 600.199 786.963C594.792 786.043 589.227 785.755 583.749 785.808C544.341 786.192 513.378 804.26 486.585 831.734C482.552 836.048 478.862 840.637 475.514 845.502C468.935 835.102 460.878 825.086 453.284 815.398C455.293 813.67 457.335 811.982 459.41 810.334C461.485 808.685 463.591 807.078 465.729 805.512C467.866 803.945 470.033 802.421 472.23 800.939C474.427 799.457 476.651 798.018 478.904 796.623C481.157 795.228 483.436 793.877 485.741 792.57C488.046 791.263 490.376 790.002 492.731 788.786C495.085 787.569 497.462 786.399 499.862 785.276C502.262 784.153 504.683 783.076 507.125 782.047C509.567 781.017 512.028 780.035 514.508 779.102C516.988 778.168 519.485 777.283 521.999 776.447C524.514 775.61 527.044 774.823 529.589 774.085C532.134 773.347 534.692 772.659 537.264 772.02C539.836 771.382 542.419 770.794 545.014 770.256C547.609 769.718 550.213 769.231 552.827 768.794C555.44 768.357 558.061 767.972 560.69 767.637C563.319 767.302 565.953 767.019 568.593 766.787Z" fill="#FEFEFE"></path><path d="M519.125 218.715C523.58 218.816 528.005 219.23 532.401 219.959C552.697 223.207 573.323 226.432 592.842 233.052C658.496 255.32 706.72 301.519 735.513 364.022C741.454 376.919 746.774 390.053 750.679 403.721C753.169 412.483 755.195 421.351 756.756 430.326C758.38 439.396 759.528 448.855 762.534 457.583C764.99 464.711 768.834 471.08 772.291 477.735C774.638 482.252 776.366 487.477 779.389 491.579C783.975 497.801 801.678 498.315 808.735 499.438C821.463 501.464 832.587 504.711 840.293 515.686C842.81 519.27 845.071 523.185 848.492 525.994C855.43 531.69 864.973 533.913 872.381 539.18C883.74 547.256 891.175 558.324 899.857 568.922C905.662 576.007 911.566 582.776 916.97 590.201C919.527 590.945 922.104 592.068 924.589 593.052C929.635 595.049 949.873 604.021 951.336 609.551C951.676 610.837 951.191 611.365 950.54 612.371C948.788 613.066 947.808 613.035 946.069 612.301C943.301 611.132 940.787 609.095 938.226 607.53C934.171 605.051 929.851 602.867 925.499 600.962C912.054 595.077 897.85 592.211 884.153 587.132C870.748 582.161 858.53 575.07 844.717 570.97C813.946 561.837 782.34 558.429 750.688 554.138C717.753 549.349 684.698 545.634 651.521 542.994C618.345 540.353 585.118 538.793 551.84 538.312C545.618 538.217 539.414 537.681 533.193 537.546C518.472 537.151 503.764 537.432 489.069 538.39C479.133 538.563 469.213 539.56 459.278 539.726C443.835 539.985 428.445 539.477 412.996 540.344C394.145 541.399 375.331 542.924 356.556 544.919C337.781 546.914 319.067 549.376 300.415 552.305C281.763 555.234 263.195 558.627 244.712 562.484C226.229 566.341 207.854 570.656 189.587 575.43C174.663 579.475 160.224 584.698 145.575 589.567C135.156 593.029 124.603 596.083 114.201 599.586C106.36 602.226 98.4004 605.493 91.119 609.439C86.4413 611.974 81.7405 615.507 76.726 617.23C75.5494 617.081 74.2898 616.705 73.5654 615.672C72.8214 614.61 72.4895 613.679 72.8874 612.391C74.8092 606.173 102.426 598.498 108.961 594.607C111.836 592.895 114.24 589.817 116.373 587.277C125.025 576.974 132.494 565.512 140.663 554.81C146.259 547.478 152.819 540.733 158.67 533.563C166.664 523.768 174.12 513.42 182.382 503.87C193.312 491.233 206.353 480.49 217.862 468.362C224.092 461.797 236.367 446.752 243.416 443.05C243.548 443.096 243.681 443.14 243.813 443.189C244.031 443.27 244.247 443.358 244.465 443.441C247.829 444.717 250.771 446.746 253.83 448.613C260.43 452.64 265.613 454.665 273.228 456.261C273.447 442.641 274.127 429.341 276.991 415.985C284.549 380.724 307.193 339.445 331.062 312.538C338.221 304.467 346.148 297.111 353.89 289.608C360.496 283.205 367.003 276.715 374.143 270.898C403.36 247.092 437.764 234.707 474.168 226.579C488.923 223.285 503.99 219.596 519.125 218.715Z" fill="#F3B09D"></path><path d="M510.193 229.206C520.545 228.548 530.994 229.322 541.289 230.416C544.023 230.693 546.751 231.018 549.473 231.393C552.195 231.768 554.909 232.191 557.616 232.664C560.323 233.137 563.02 233.659 565.708 234.229C568.396 234.799 571.073 235.417 573.738 236.084C576.403 236.751 579.056 237.465 581.696 238.228C584.336 238.991 586.961 239.801 589.571 240.658C592.182 241.515 594.776 242.419 597.354 243.37C599.932 244.321 602.492 245.319 605.034 246.362C607.576 247.405 610.098 248.494 612.601 249.628C615.104 250.763 617.585 251.942 620.045 253.166C622.505 254.39 624.942 255.658 627.356 256.97C629.771 258.282 632.161 259.637 634.526 261.035C636.891 262.433 639.231 263.873 641.544 265.356C643.857 266.839 646.143 268.363 648.402 269.928C650.66 271.493 652.889 273.098 655.09 274.744C657.291 276.389 659.461 278.074 661.6 279.798C685.27 298.853 701.968 322.535 717.299 348.427C724.694 360.917 731.848 373.927 737.091 387.495C744.535 406.76 751.518 437.988 753.757 458.618C746.132 449.804 737.948 441.961 727.638 436.308C720.075 432.161 704.615 427.863 699.262 421.97C693.84 416 692.026 406.497 688.638 399.301C685.061 391.705 680.364 383.804 675.471 377.008C670.989 370.783 662.541 358.116 654.653 357.101C646.901 356.103 642.583 367.397 637.347 371.45C635.346 372.998 633.279 373.588 630.771 373.193C624.519 372.207 611.817 366.627 608.021 361.162C605.644 357.74 604.943 352.783 603.955 348.801C601.207 337.724 597.701 318.581 591.247 309.803C582.659 298.124 568.224 291.945 557.237 282.913C548.47 275.704 542.15 266.025 533.002 259.049C530.113 256.846 527.821 255.718 524.182 255.126C514.761 256.758 506.898 270.187 500.275 276.577C493.78 282.844 485.945 287.788 478.742 293.2C468.503 300.892 459.886 309.915 452.181 320.105C444.386 330.412 438.557 342.099 432.886 353.665C420.173 379.594 410.357 395.643 387.634 414.246C384.017 411.27 369.75 396.621 366.822 396.132C363.922 395.648 353.591 405.741 351.283 407.775C340.697 417.11 329.202 424.808 317.876 433.188C306.168 441.85 294.361 451.322 282.038 459.083C282.054 448.154 282.131 437.155 283.898 426.339C285.057 419.244 287.072 412.386 289.152 405.52C299.349 371.869 317.154 342.481 339.832 315.769C341.153 314.21 342.494 312.667 343.854 311.14C345.213 309.614 346.592 308.105 347.989 306.613C349.386 305.121 350.802 303.647 352.236 302.19C353.67 300.733 355.122 299.294 356.592 297.873C358.061 296.452 359.548 295.05 361.053 293.667C362.558 292.283 364.079 290.918 365.618 289.572C367.156 288.227 368.711 286.9 370.283 285.593C371.854 284.286 373.442 282.998 375.045 281.73C376.648 280.463 378.267 279.215 379.902 277.987C381.537 276.76 383.186 275.553 384.851 274.366C386.515 273.179 388.194 272.014 389.888 270.869C391.581 269.724 393.289 268.601 395.01 267.499C396.731 266.396 398.466 265.315 400.215 264.256C401.963 263.197 403.724 262.16 405.498 261.145C407.272 260.129 409.058 259.136 410.857 258.165C412.656 257.194 414.467 256.246 416.289 255.32C418.112 254.394 419.945 253.491 421.79 252.61C423.635 251.729 425.49 250.872 427.356 250.038C429.223 249.204 431.099 248.393 432.985 247.605C434.871 246.818 436.767 246.054 438.672 245.313C440.577 244.572 442.492 243.856 444.415 243.163C446.338 242.47 448.27 241.802 450.209 241.157C452.149 240.512 454.097 239.891 456.052 239.295C458.007 238.698 459.969 238.126 461.938 237.578C463.908 237.031 465.884 236.508 467.866 236.009C469.849 235.51 471.837 235.037 473.831 234.588C475.825 234.139 477.824 233.714 479.829 233.315C481.834 232.916 483.843 232.541 485.857 232.192C487.871 231.842 489.889 231.517 491.912 231.218C493.934 230.919 495.959 230.645 497.988 230.396C500.017 230.147 502.048 229.924 504.083 229.725C506.118 229.527 508.154 229.354 510.193 229.206Z" fill="#FEFEFE"></path><path d="M524.58 268.357C524.754 268.436 524.945 268.483 525.101 268.593C526.605 269.66 528.02 271.456 529.489 272.685C533.325 275.893 537.319 278.977 540.963 282.401C545.209 286.39 549.152 290.728 553.514 294.59C561.831 301.955 574.643 309.326 580.885 318.387C588.738 329.785 591.246 356.97 594.999 371.14C597.793 381.688 602.034 391.954 606.215 402.016C612.224 416.478 619.499 430.913 629.147 443.302C637.032 453.426 648.272 462.463 653.463 474.296C656.601 481.449 656.598 488.248 657.88 495.732C657.95 496.149 658.025 496.566 658.105 496.982C659.245 497.571 659.012 497.404 660.133 497.058C662.534 492.618 664.264 485.789 664.403 480.719C664.783 466.788 655.152 456.827 646.312 447.354C650.084 447.496 656.708 449.899 660.11 448.133C661.385 447.471 661.356 446.784 661.589 445.524C658.961 441.513 646.138 440.999 641.336 439.418C641.15 439.357 640.965 439.291 640.78 439.227C637.868 436.236 636.021 432.931 634.229 429.205C638.534 430.355 643.721 432.552 648.165 432.594C649.349 432.605 649.745 432.543 650.636 431.698L650.465 430.488C646.255 424.996 636.741 425.049 630.522 422.844L629.88 422.611C628.311 419.96 627.173 417.36 626.101 414.473C633.52 415.685 641.007 417.965 648.605 416.951C650.065 416.756 651.68 416.481 652.603 415.266C652.558 415.012 652.559 414.746 652.467 414.505C650.357 408.941 628.171 405.67 622.403 403.73C620.339 403.035 618.931 402.282 618.021 400.207C617.622 399.3 617.85 399.259 618.168 398.404C623.149 396.009 633.183 400.232 639.346 399.08C640.641 398.838 641.115 398.567 641.821 397.485L641.516 396.412C636.92 392.067 620.097 389.723 613.39 388.554C612.717 386.355 610.824 381.984 611.741 379.856C616.362 379.642 633.073 386.703 641.283 387.537C645.268 383.043 647.309 376.267 653.154 373.748C656.451 373.63 659.33 377.746 661.277 380.023C673.417 394.222 679.553 410.508 686.551 427.495C688.895 433.184 691.563 438.73 693.943 444.403C696.55 450.619 698.824 457.077 701.823 463.113C709.195 477.946 721.288 490.361 736.649 496.894C741.503 498.958 763.738 507.424 767.673 505.848C765.867 503.35 760.16 501.656 757.359 500.45C721.23 484.897 719.651 471.677 704.373 438.5C721.99 446.01 749.961 465.151 760.132 481.487C765.947 490.829 769.692 501.449 775.81 510.631C776.877 512.233 778.34 514.606 780.339 515.001L781.174 514.324C781.371 511.464 779.694 508.325 778.688 505.657C791.636 509.266 806.231 508.537 818.639 513.489C830.442 518.2 831.793 527.338 840.065 534.88C844.966 539.349 851.425 542.09 857.03 545.568C864.527 550.221 870.651 555.873 876.808 562.118C868.722 558.992 860.12 557.698 851.682 555.86C829.577 551.044 807.406 547.462 785.123 543.661C773.265 541.637 761.36 539.947 749.497 537.967C730.08 534.726 710.545 531.237 690.985 529C665.01 526.03 638.705 524.852 612.646 522.631C586.288 520.384 560.194 517.17 533.687 516.99C514.782 516.861 495.921 517.881 477.05 518.894C444.143 520.612 411.298 523.132 378.515 526.453C347.972 529.422 317.269 531.471 286.994 536.635C258.311 541.528 230.153 549.934 202.42 558.605C184.812 564.111 166.849 570.291 148.796 574.083C167.113 559.846 188.561 548.239 208.517 536.398C213.255 533.587 218.405 531.161 222.977 528.119C224.048 527.406 224.797 527.098 225.042 525.813C224.772 525.465 224.651 525.257 224.238 525.005C215.042 519.401 190.743 533.647 180.718 537.043C189.165 530.427 198.428 525.132 207.352 519.222L254.652 487.576C256.883 486.1 260.564 483.955 261.115 481.253L260.289 480.514C258.137 479.888 256.577 480.422 254.508 481.163C248.404 483.35 242.59 487.136 236.985 490.351C226.313 496.474 215.044 503.276 203.747 508.114L202.935 508.457C207.883 502.381 214.81 497.673 220.933 492.81C226.812 488.127 232.646 483.389 238.436 478.597C242.538 475.099 248.935 472.008 251.981 467.522C252.67 466.506 252.805 466.004 252.582 464.82C252.135 464.448 252.094 464.369 251.485 464.114C250.559 463.727 249.132 463.772 248.203 464.118C241.088 466.775 231.778 476.823 224.296 480.99L223.62 481.36C226.424 477.955 230.12 475.196 233.189 472.014C237.695 467.342 241.594 462.036 245.565 456.904C255.269 462.451 267.484 465.373 276.144 472.086C281.36 476.13 285.252 481.493 289.548 486.443C295.658 493.481 302.81 499.908 310.805 504.73C312.749 505.903 316.051 508.239 318.349 507.675L318.597 506.751C318.013 504.635 316.64 503.345 315.204 501.762C322.464 497.396 333.256 493.461 341.232 490.214C343.87 489.14 347.448 488.47 349.75 486.812C350.764 486.082 351.013 485.597 351.224 484.401C350.783 483.322 350.683 482.7 349.451 482.301C343.014 480.217 320.929 492.025 313.789 494.363C312.382 494.824 311.802 495.026 310.487 494.317C310.455 488.524 349.894 478.473 355.213 470.799C355.747 470.03 355.491 469.887 355.313 469.029C353.998 468.031 353.082 467.759 351.417 467.92C341.683 468.86 310.74 487.368 304.344 485.921C308.078 479.682 350.766 464.912 357.014 455.649C357.144 455.456 357.259 455.254 357.383 455.057C357.826 454.357 358.273 453.668 358.64 452.922C359.387 451.406 359.676 450.244 359.115 448.646C357.218 448.048 355.779 448.422 353.95 449.219C349.854 451.003 346.233 453.912 342.25 455.946C327.993 463.228 308.71 473.876 293.429 477.816C299.344 473.511 305.948 470.151 312.168 466.302C324.526 458.818 336.527 450.8 348.172 442.249C351.559 439.727 355.592 437.234 358.635 434.337C359.608 433.411 359.754 432.769 359.859 431.476C359.318 430.295 359.384 430.152 358.229 429.609C356.238 429.96 326.996 448.265 320.847 451.407C331.97 442.776 345.867 434.815 354.486 423.541C356.574 420.809 362.121 411.296 365.299 410.629C369.657 411.84 373.459 415.531 376.955 418.281C380.793 421.3 386.036 424.759 388.672 428.969C392.388 434.901 392.876 447.962 394.313 455.137C394.82 457.657 395.461 460.143 396.235 462.594C397.009 465.046 397.912 467.449 398.943 469.804C404.307 481.897 413.244 490.336 422.22 499.66C422.173 499.508 422.123 499.356 422.081 499.203C420.69 494.157 417.932 489.635 415.6 484.973C412.602 478.98 409.923 472.94 408.041 466.496C414.715 463.504 454.853 449.325 456.106 447.493C456.767 446.527 457.324 445.375 457.084 444.224C452.474 440.943 413.83 458.428 405.193 459.06C405.089 458.94 404.969 458.832 404.88 458.7C403.922 457.285 403.93 455.419 404.151 453.798C412.911 447.618 461.559 433.276 474.944 428.903C480.064 427.23 492.599 424.617 494.912 420.063C494.728 418.681 494.815 418.661 493.776 417.757C492.364 417.434 491.181 417.318 489.741 417.566C481.466 418.986 472.93 422.307 464.751 424.486C448.592 428.79 432.217 432.527 416.25 437.521C411.392 439.041 406.742 440.917 402.083 442.95L401.041 438.2C416.798 425.991 480.396 405.479 485.557 399.548C485.821 398.525 485.889 397.93 485.567 396.93C485.328 396.19 485.486 396.063 484.85 395.841C483.652 395.423 482.165 395.876 481.004 396.239C469.099 399.966 457.476 404.844 445.674 408.909C431.601 413.756 417.204 417.888 402.985 422.295C409.193 416.989 417.286 412.785 424.492 408.928C441.392 399.882 459.111 391.841 476.793 384.454C484.689 381.155 492.936 378.297 500.722 374.821C502.361 374.089 503.51 373.38 504.59 371.945C504.771 370.586 504.784 370.623 504.032 369.476C502.41 368.741 501.202 368.712 499.49 369.045C491.633 370.572 483.539 373.975 475.895 376.427C466.092 379.571 456.089 382.25 446.369 385.628C440.159 387.785 434.215 390.775 427.848 392.452L427.066 392.653C434.672 387.159 442.212 381.443 450.398 376.829C461.123 370.783 472.2 365.534 483.32 360.272C488.895 357.634 494.806 355.168 500.159 352.103C501.407 351.389 502.716 350.355 503.476 349.113C504.111 348.074 504.152 347.507 503.88 346.358C503.543 346.11 503.352 345.933 502.922 345.8C501.485 345.355 499.387 345.944 497.988 346.342C492.671 347.852 487.517 350.303 482.289 352.134C470.89 356.127 459.437 359.757 448.14 364.062C453.218 360.008 459.119 356.913 464.738 353.683C479.18 345.379 493.934 338.08 508.811 330.608C511.73 329.141 515.093 328.337 517.883 326.769C518.929 326.182 519.241 325.9 519.74 324.863C519.114 323.67 518.604 322.856 517.293 322.332C515.944 321.792 514.527 322.252 513.209 322.656C506.748 324.636 500.379 327.669 494.055 330.101C481.707 334.785 469.263 339.197 456.722 343.337C469.763 330.675 500.044 317.643 517.085 308.26C520.841 306.192 524.934 304.241 528.436 301.769C530.462 300.339 531.202 299.695 531.607 297.272C525.741 296.206 487.215 314.129 478.979 317.383C485.129 313.022 490.98 308.268 497.186 303.971C505.349 298.319 514.123 292.98 521.816 286.713C523.271 285.527 524.675 283.809 525.669 282.218C526.228 281.323 526.706 280.534 526.422 279.488C522.457 279.111 503.551 290.917 498.917 293.482C502.672 289.556 506.76 285.93 510.586 282.065C515.035 277.57 519.453 271.986 524.58 268.357Z" fill="#FEFEFE"></path><path d="M246.612 498.945C247.579 499.548 247.892 500.039 248.428 501.035C248.32 502.005 248.397 502.213 247.793 503.06C244.079 508.269 221.462 521.126 215.11 522.016C214.247 521.451 213.545 520.985 212.816 520.242C212.109 519.521 212.324 519.364 212.317 518.415C215.371 513.889 240.399 501.891 246.612 498.945Z" fill="#F3B09D"></path></svg>