<svg xmlns="http://www.w3.org/2000/svg" width="363" height="342" viewBox="0 0 363 342" fill="none"><path d="M199.333 1.23637C180.533 4.43637 162.8 14.0364 147.2 29.6364C130.533 46.303 124 61.7697 124 85.103C124 100.57 128 116.303 136 132.57C143.467 147.636 152.133 157.636 166.667 167.903C184.667 180.703 193.067 183.103 217.467 182.17L234 181.636L221.333 184.703C205.067 188.703 180 190.17 165.733 187.77C154.267 185.903 139.067 181.236 133.867 177.77L130.533 175.636L133.333 172.17C138.533 165.503 135.733 151.77 127.867 146.036C123.333 142.836 119.333 143.903 116.533 149.37C113.6 154.97 115.2 162.57 120.8 169.77C125.067 175.37 125.067 175.77 122.533 175.77C120.933 175.77 113.867 174.036 106.8 171.77C88.6667 166.303 76.4 164.57 67.7333 166.436C60.4 167.903 44 176.303 44 178.436C44 180.436 45.0667 180.036 51.0667 176.036C65.7333 166.036 78.5333 165.503 106 173.77C114.8 176.436 123.467 178.303 125.067 178.036C126.933 177.636 131.467 179.103 135.733 181.236C160.533 193.503 204.267 194.17 237.333 182.703C257.2 175.77 268.533 168.836 284 154.036C291.333 146.97 294.4 142.57 299.333 132.836C307.733 115.37 309.867 106.303 308.933 89.103C307.333 55.7697 292 24.4364 271.467 12.4364C268.533 10.703 261.2 8.03636 255.333 6.5697C249.467 5.10303 241.067 2.9697 236.667 1.90303C228.267 -0.363647 210.533 -0.630295 199.333 1.23637ZM236 3.90303C239.733 4.70302 242.533 5.7697 242 6.16971C241.6 6.5697 234.267 6.9697 225.6 7.10304C211.2 7.23637 209.333 7.63637 202 11.2364C184.667 19.7697 171.2 37.6364 167.867 56.4364C167.2 60.8364 164.533 69.3697 162 75.2364C154.933 92.4364 152.933 104.036 153.6 122.836C154.267 138.436 155.867 146.17 162 160.436C163.733 164.57 153.6 155.37 147.467 147.236C130.533 124.836 122.133 90.303 127.867 66.4364C134.667 38.1697 160.533 13.903 193.333 4.9697C203.467 2.16969 225.6 1.63635 236 3.90303ZM217.333 12.703C201.2 20.0364 188 31.7697 176.533 48.9697C173.067 54.1697 170.133 58.4364 170 58.4364C168.8 58.4364 172.667 46.1697 175.467 40.4364C184.667 22.303 203.2 9.10303 219.333 9.23637L224.667 9.36971L217.333 12.703ZM267.333 13.103C277.067 17.7697 289.067 30.5697 294.933 42.4364C297.6 47.903 300.267 53.903 300.667 55.7697C301.467 58.9697 301.333 58.9697 298.533 55.103C289.333 42.703 272.133 30.4364 264 30.4364C261.6 30.4364 258.667 28.4364 254.667 24.303C251.333 20.9697 246.133 16.5697 243.067 14.5697C240 12.4364 237.867 10.303 238.4 9.7697C238.933 9.23636 244.133 9.10303 250 9.36971C257.867 9.63637 262.4 10.703 267.333 13.103ZM216.667 21.3697C205.867 32.303 202.4 39.3697 199.867 56.0364C197.467 71.7697 200.533 88.4364 209.333 107.236C219.067 128.303 231.067 143.103 248.267 155.503C253.867 159.503 258.8 163.636 259.2 164.57C261.867 171.636 226.133 182.303 205.333 180.703C194.533 179.77 183.467 176.97 179.467 174.036C177.6 172.703 179.867 172.836 188.8 174.703C208.133 178.57 222.667 177.636 222.667 172.436C222.667 171.37 216.8 164.57 209.733 157.37C195.067 142.836 187.2 130.703 178.533 109.77C172 93.6364 169.333 83.103 169.333 72.5697C169.333 65.903 170 63.6364 174.267 56.5697C186.8 35.7697 203.867 20.0364 220.8 13.903C223.733 12.8364 226.133 11.903 226.133 11.903C226.267 11.7697 222 16.1697 216.667 21.3697ZM238.8 14.5697C241.867 16.0364 246.933 20.0364 250.267 23.3697L256.4 29.3697L248.533 32.0364C233.733 36.9697 221.733 47.2364 216.8 58.8364C214.267 64.9697 211.333 79.6364 209.867 92.4364L208.933 101.77L205.733 91.7697C195.6 60.703 204.133 29.903 226.533 15.503C229.867 13.503 232.667 11.7697 232.933 11.7697C233.2 11.7697 235.867 12.9697 238.8 14.5697ZM261.867 37.7697C266.4 45.3697 272.667 64.5697 276 81.103C279.6 98.4364 279.6 98.4364 274.4 98.4364C272 98.4364 267.067 99.903 263.333 101.636C246.267 109.77 238.267 128.036 245.333 143.37C253.467 161.503 265.333 159.636 275.6 138.836C280.133 129.77 280.667 127.503 281.333 114.836L282 100.836L285.6 104.436C287.733 106.436 290 110.57 290.8 113.636C292.4 119.636 291.733 133.636 289.333 141.37C287.467 147.636 278.4 157.636 268.133 164.97C260.133 170.57 259.867 170.57 260.8 167.236C261.867 162.703 260.667 161.37 247.733 152.303C235.867 144.036 222.8 128.703 215.6 114.57C211.2 105.77 211.2 105.77 212.267 93.103C214.667 65.6364 221.067 50.4364 234 41.7697C239.6 38.1697 254 32.0364 257.6 31.7697C258 31.7697 260 34.4364 261.867 37.7697ZM274.933 36.8364C283.2 41.2364 296 54.703 300.667 63.7697C305.467 73.103 306.933 85.2364 305.2 99.6364C303.867 111.103 298.4 129.77 295.2 134.036C293.733 136.036 293.6 135.37 294.267 128.97C295.333 117.636 292.667 108.436 286.533 102.303C281.733 97.503 281.067 95.903 278.667 83.6364C275.333 66.4364 270.133 49.2364 265.2 39.3697L261.2 31.6364L264.933 32.5697C267.067 33.103 271.467 34.9697 274.933 36.8364ZM171.467 97.503C179.867 122.97 190.533 141.103 207.067 158.036C215.6 166.703 219.867 172.17 219.333 173.236C216.933 176.836 182.133 172.303 171.733 166.97C162.4 162.17 155.333 140.836 155.467 117.77C155.6 102.436 156.533 97.5031 162.267 81.103L165.867 71.103L167.6 80.8364C168.4 86.303 170.267 93.7697 171.467 97.503ZM279.467 105.77C282.667 123.37 269.6 153.103 258.667 153.103C254.133 153.103 251.6 150.836 247.867 143.37C243.733 135.37 244.667 123.103 250.133 115.503C255.2 108.17 266.8 101.103 273.6 101.103C278.267 101.103 278.667 101.37 279.467 105.77ZM126.933 147.903C128.4 148.703 130.8 152.036 132.267 155.37C135.067 161.636 134.8 165.903 131.2 171.503C128.667 175.503 125.2 173.77 120.667 165.903C116.933 159.37 116.267 151.636 119.467 148.57C121.867 146.036 123.2 145.903 126.933 147.903Z" fill="white"></path><path d="M4.80487 263L17.7169 229.4H20.6929L33.6049 263H30.1009L24.1489 247.256H13.2529L8.30887 263H4.80487ZM18.0529 231.896L13.5889 246.104H23.7169L18.3409 231.896H18.0529ZM46.6931 229.4H49.9571V249.656C49.9571 253.528 50.9011 256.552 52.7891 258.728C54.7091 260.872 57.3971 261.944 60.8531 261.944C63.0291 261.944 64.9171 261.528 66.5171 260.696C68.1491 259.832 69.3971 258.648 70.2611 257.144C71.1571 255.64 71.5731 253.912 71.5091 251.96L70.6931 229.4H73.9571L73.1411 251.96C73.0131 255.8 71.8611 258.712 69.6851 260.696C67.5411 262.68 64.4691 263.672 60.4691 263.672C56.1491 263.672 52.7731 262.424 50.3411 259.928C47.9091 257.4 46.6931 253.944 46.6931 249.56V229.4ZM92.19 263V229.4H102.75C106.462 229.4 109.694 230.104 112.446 231.512C115.198 232.92 117.342 234.888 118.878 237.416C120.414 239.912 121.182 242.84 121.182 246.2C121.182 249.56 120.414 252.504 118.878 255.032C117.342 257.528 115.198 259.48 112.446 260.888C109.694 262.296 106.462 263 102.75 263H92.19ZM102.75 230.552H95.454V261.848H102.75C107.39 261.848 111.006 260.472 113.598 257.72C116.222 254.968 117.534 251.128 117.534 246.2C117.534 241.272 116.222 237.432 113.598 234.68C111.006 231.928 107.39 230.552 102.75 230.552ZM138.004 263V229.4H152.644V231.752L144.244 230.648C142.772 230.456 141.78 230.36 141.268 230.36V245C141.684 245 142.676 244.952 144.244 244.856L152.116 244.376V246.584L144.244 246.104C142.676 246.008 141.684 245.96 141.268 245.96V262.04C141.844 262.04 142.852 261.944 144.292 261.752L152.788 260.648V263H138.004ZM169.567 229.4H172.832V262.04C173.439 262.04 174.399 261.944 175.712 261.752L183.68 260.552V263H169.567V229.4ZM190.849 229.4H194.353L206.113 258.776H206.401L214.081 239.768L209.905 229.4H213.409L225.121 258.68H225.409L235.105 229.4H238.609L224.785 263.672H223.729L214.753 241.352L205.729 263.672H204.673L190.849 229.4ZM252.804 263V229.4H267.444V231.752L259.044 230.648C257.572 230.456 256.58 230.36 256.068 230.36V245C256.484 245 257.476 244.952 259.044 244.856L266.916 244.376V246.584L259.044 246.104C257.476 246.008 256.484 245.96 256.068 245.96V262.04C256.644 262.04 257.652 261.944 259.092 261.752L267.588 260.648V263H252.804ZM284.368 263V229.4H287.632V263H284.368ZM303.91 261.944L304.198 259.064H304.486C305.734 260.152 307.142 261 308.71 261.608C310.278 262.216 311.83 262.52 313.366 262.52C315.542 262.52 317.302 261.928 318.646 260.744C319.99 259.528 320.662 257.912 320.662 255.896C320.662 254.776 320.406 253.736 319.894 252.776C319.414 251.816 318.598 250.84 317.446 249.848C316.326 248.856 314.774 247.784 312.79 246.632C311.414 245.832 310.102 245 308.854 244.136C307.606 243.24 306.582 242.216 305.782 241.064C304.982 239.88 304.582 238.472 304.582 236.84C304.582 234.408 305.462 232.456 307.222 230.984C308.982 229.48 311.302 228.728 314.182 228.728C315.462 228.728 316.838 228.872 318.31 229.16C319.782 229.416 320.918 229.752 321.718 230.168L321.478 232.856H321.19C319.366 230.872 317.03 229.88 314.182 229.88C312.134 229.88 310.486 230.408 309.238 231.464C307.99 232.488 307.366 233.88 307.366 235.64C307.366 236.952 307.702 238.088 308.374 239.048C309.078 239.976 309.974 240.824 311.062 241.592C312.15 242.328 313.318 243.048 314.566 243.752C316.006 244.584 317.398 245.464 318.742 246.392C320.118 247.32 321.238 248.44 322.102 249.752C322.998 251.032 323.446 252.648 323.446 254.6C323.446 256.392 323.03 257.976 322.198 259.352C321.366 260.696 320.182 261.752 318.646 262.52C317.142 263.288 315.382 263.672 313.366 263.672C312.086 263.672 310.582 263.512 308.854 263.192C307.126 262.872 305.478 262.456 303.91 261.944ZM336.693 261.944L336.981 259.064H337.269C338.517 260.152 339.925 261 341.493 261.608C343.061 262.216 344.613 262.52 346.149 262.52C348.325 262.52 350.085 261.928 351.429 260.744C352.773 259.528 353.445 257.912 353.445 255.896C353.445 254.776 353.189 253.736 352.677 252.776C352.197 251.816 351.381 250.84 350.229 249.848C349.109 248.856 347.557 247.784 345.573 246.632C344.197 245.832 342.885 245 341.637 244.136C340.389 243.24 339.365 242.216 338.565 241.064C337.765 239.88 337.365 238.472 337.365 236.84C337.365 234.408 338.245 232.456 340.005 230.984C341.765 229.48 344.085 228.728 346.965 228.728C348.245 228.728 349.621 228.872 351.093 229.16C352.565 229.416 353.701 229.752 354.501 230.168L354.261 232.856H353.973C352.149 230.872 349.813 229.88 346.965 229.88C344.917 229.88 343.269 230.408 342.021 231.464C340.773 232.488 340.149 233.88 340.149 235.64C340.149 236.952 340.485 238.088 341.157 239.048C341.861 239.976 342.757 240.824 343.845 241.592C344.933 242.328 346.101 243.048 347.349 243.752C348.789 244.584 350.181 245.464 351.525 246.392C352.901 247.32 354.021 248.44 354.885 249.752C355.781 251.032 356.229 252.648 356.229 254.6C356.229 256.392 355.813 257.976 354.981 259.352C354.149 260.696 352.965 261.752 351.429 262.52C349.925 263.288 348.165 263.672 346.149 263.672C344.869 263.672 343.365 263.512 341.637 263.192C339.909 262.872 338.261 262.456 336.693 261.944Z" fill="white"></path><line y1="310" x2="80" y2="310" stroke="white"></line><path d="M140.273 311.422C140.573 311.422 140.819 311.531 141.011 311.75C141.229 311.969 141.325 312.228 141.298 312.529C141.298 312.83 141.175 313.076 140.929 313.267C137.594 316.055 133.877 318.201 129.777 319.704C125.677 321.207 121.44 321.973 117.067 322C114.935 322 112.816 321.809 110.712 321.426C109.482 321.207 108.443 320.893 107.596 320.483C106.748 320.046 106.133 319.567 105.751 319.048C105.341 318.529 105.067 318.05 104.931 317.613C104.767 317.148 104.685 316.684 104.685 316.219C104.685 314.852 105.204 313.445 106.243 311.996C107.254 310.52 108.457 309.29 109.851 308.306C111.272 307.322 112.584 306.707 113.787 306.461C115.454 305.996 116.957 306.283 118.297 307.322C119.417 308.388 119.978 309.7 119.978 311.258C119.95 311.559 119.827 311.818 119.609 312.037C119.417 312.228 119.171 312.324 118.871 312.324C118.57 312.324 118.31 312.215 118.092 311.996C117.9 311.777 117.805 311.518 117.805 311.217C117.832 310.342 117.531 309.591 116.903 308.962C116.055 308.415 115.153 308.292 114.197 308.593C112.693 308.866 111.081 309.864 109.359 311.586C107.664 313.281 106.817 314.825 106.817 316.219C106.844 317.777 108.265 318.816 111.081 319.335C112.83 319.636 114.593 319.8 116.37 319.827C118.174 319.854 119.814 319.772 121.29 319.581C122.793 319.362 124.283 319.062 125.759 318.679C127.235 318.296 128.547 317.873 129.695 317.408C130.843 316.943 131.95 316.438 133.016 315.891C134.109 315.317 135.011 314.811 135.722 314.374C136.46 313.937 137.143 313.486 137.772 313.021C138.4 312.556 138.824 312.242 139.043 312.078C139.261 311.887 139.412 311.75 139.494 311.668C139.712 311.477 139.972 311.395 140.273 311.422ZM173.884 310.889C174.184 310.889 174.43 310.998 174.622 311.217C174.84 311.436 174.95 311.695 174.95 311.996C174.95 312.269 174.84 312.515 174.622 312.734C171.97 315.303 168.704 317.285 164.823 318.679C160.941 320.046 157.388 320.729 154.163 320.729C152.605 320.811 151.101 320.524 149.653 319.868C149.024 319.513 148.518 319.116 148.136 318.679C147.753 318.242 147.507 317.777 147.398 317.285C147.288 316.766 147.22 316.301 147.193 315.891C147.193 315.481 147.288 315.016 147.48 314.497C147.671 313.95 147.821 313.54 147.931 313.267C148.067 312.966 148.245 312.597 148.464 312.16C148.546 311.996 148.477 311.9 148.259 311.873C148.149 311.873 147.999 311.928 147.808 312.037C146.304 312.857 144.692 313.226 142.97 313.144C142.204 313.171 141.453 313.021 140.715 312.693C140.441 312.775 140.168 312.748 139.895 312.611C139.457 312.392 139.266 312.037 139.321 311.545C138.911 311.053 138.624 310.493 138.46 309.864C138.132 308.743 138.159 307.636 138.542 306.543C138.924 305.45 139.594 304.548 140.551 303.837C141.699 303.154 142.601 303.126 143.257 303.755C144.159 304.602 143.858 306.721 142.355 310.11C142.3 310.247 142.341 310.438 142.478 310.684C142.614 310.903 142.778 311.012 142.97 311.012C144.555 311.012 146.045 310.616 147.439 309.823C147.849 309.577 148.177 309.413 148.423 309.331C148.669 309.222 148.997 309.181 149.407 309.208C149.817 309.208 150.199 309.345 150.555 309.618C150.91 309.891 151.101 310.247 151.129 310.684C151.156 311.121 151.101 311.504 150.965 311.832C150.855 312.133 150.664 312.556 150.391 313.103C149.707 314.36 149.366 315.372 149.366 316.137C149.393 316.875 149.858 317.504 150.76 318.023C151.306 318.351 152.195 318.542 153.425 318.597C154.655 318.652 156.103 318.542 157.771 318.269C159.438 317.996 161.16 317.586 162.937 317.039C164.713 316.492 166.517 315.713 168.349 314.702C170.18 313.663 171.765 312.488 173.105 311.176C173.323 310.985 173.583 310.889 173.884 310.889ZM140.469 308.962C140.961 307.923 141.343 306.844 141.617 305.723C140.605 306.598 140.223 307.677 140.469 308.962ZM205.45 311.709C205.75 311.709 205.996 311.818 206.188 312.037C206.379 312.256 206.461 312.515 206.434 312.816C206.434 313.117 206.324 313.363 206.106 313.554C205.86 313.773 205.532 314.06 205.122 314.415C204.739 314.743 204.028 315.29 202.99 316.055C201.951 316.82 200.899 317.517 199.833 318.146C198.767 318.775 197.509 319.403 196.061 320.032C194.612 320.633 193.218 321.057 191.879 321.303C190.539 321.549 189.132 321.576 187.656 321.385C186.18 321.166 184.827 320.661 183.597 319.868C182.449 319.13 181.533 318.173 180.85 316.998C180.658 316.67 180.358 316.492 179.948 316.465C179.565 316.438 179.264 316.588 179.046 316.916C178.089 318.392 177.037 319.636 175.889 320.647C174.768 321.658 173.729 322.178 172.773 322.205H172.732C172.24 322.178 171.789 322.027 171.379 321.754C170.941 321.453 170.627 321.071 170.436 320.606C169.616 318.556 169.739 316.561 170.805 314.62C171.707 312.734 172.964 311.135 174.577 309.823C176.217 308.484 178.062 307.568 180.112 307.076C180.522 306.967 180.863 307.062 181.137 307.363C181.437 307.664 181.519 308.019 181.383 308.429C181.273 308.812 181.014 309.058 180.604 309.167C178.882 309.577 177.337 310.342 175.971 311.463C174.604 312.556 173.538 313.909 172.773 315.522C172.007 316.834 171.871 318.201 172.363 319.622C172.527 319.895 172.65 320.032 172.732 320.032C173.196 320.333 174.098 319.485 175.438 317.49C176.777 315.495 177.98 313.335 179.046 311.012C179.264 310.52 179.647 310.315 180.194 310.397C180.713 310.479 181.014 310.78 181.096 311.299C181.123 311.436 181.15 311.627 181.178 311.873C181.232 312.092 181.355 312.515 181.547 313.144C181.738 313.745 181.957 314.319 182.203 314.866C182.449 315.413 182.804 316 183.269 316.629C183.733 317.23 184.239 317.709 184.786 318.064C185.824 318.747 186.986 319.157 188.271 319.294C189.583 319.431 190.826 319.362 192.002 319.089C193.204 318.816 194.462 318.392 195.774 317.818C197.086 317.217 198.22 316.615 199.177 316.014C200.133 315.413 201.076 314.77 202.006 314.087C202.935 313.404 203.564 312.925 203.892 312.652C204.247 312.351 204.507 312.119 204.671 311.955C204.889 311.764 205.149 311.682 205.45 311.709ZM231.387 310.971C231.688 310.971 231.934 311.08 232.125 311.299C232.344 311.518 232.453 311.777 232.453 312.078C232.453 312.379 232.344 312.625 232.125 312.816C229.2 315.631 224.267 316.807 217.324 316.342C213.989 316.096 210.723 315.481 207.525 314.497C207.197 314.388 206.937 314.415 206.746 314.579C206.555 314.716 206.473 314.962 206.5 315.317C206.555 316 206.637 316.834 206.746 317.818C206.91 319.677 207.047 321.289 207.156 322.656C207.265 324.023 207.361 325.512 207.443 327.125C207.525 328.765 207.552 330.173 207.525 331.348C207.525 332.523 207.457 333.699 207.32 334.874C207.211 336.077 207.033 337.074 206.787 337.867C206.541 338.66 206.213 339.343 205.803 339.917C205.393 340.491 204.901 340.887 204.327 341.106C204.108 341.188 203.89 341.229 203.671 341.229C203.179 341.229 202.755 341.065 202.4 340.737C201.771 340.136 201.389 338.878 201.252 336.965C201.088 335.052 201.143 332.797 201.416 330.2C201.689 327.631 202.072 324.979 202.564 322.246C203.056 319.54 203.616 316.916 204.245 314.374C204.245 314.319 204.245 314.265 204.245 314.21C204.163 313.144 204.177 312.433 204.286 312.078C204.368 311.695 204.573 311.422 204.901 311.258C204.928 311.067 205.01 310.889 205.147 310.725L205.229 310.643C207.47 302.853 209.739 298.316 212.035 297.031C212.718 296.621 213.443 296.525 214.208 296.744C214.946 296.935 215.424 297.4 215.643 298.138C215.807 298.821 215.643 299.737 215.151 300.885C214.686 302.006 213.976 303.236 213.019 304.575C212.062 305.887 211.16 307.062 210.313 308.101C209.493 309.112 208.618 310.124 207.689 311.135C207.388 311.436 207.252 311.682 207.279 311.873C207.334 312.064 207.58 312.242 208.017 312.406C209.356 312.843 210.969 313.226 212.855 313.554C214.768 313.882 216.846 314.114 219.087 314.251C221.356 314.388 223.542 314.21 225.647 313.718C227.779 313.226 229.433 312.42 230.608 311.299C230.827 311.08 231.086 310.971 231.387 310.971ZM213.06 298.917C212.459 299.409 211.352 301.035 209.739 303.796C208.536 305.846 208.14 306.789 208.55 306.625C208.659 306.57 208.851 306.393 209.124 306.092C209.862 305.354 210.614 304.411 211.379 303.263C212.144 302.088 212.732 301.063 213.142 300.188C213.579 299.286 213.716 298.794 213.552 298.712C213.47 298.685 213.388 298.685 213.306 298.712C213.251 298.739 213.197 298.78 213.142 298.835L213.06 298.917ZM203.753 339.015C204.218 339.07 204.6 337.662 204.901 334.792C205.202 331.949 205.338 329.066 205.311 326.141C205.284 323.244 205.133 321.795 204.86 321.795C204.641 321.795 204.395 322.683 204.122 324.46C203.821 326.237 203.589 328.191 203.425 330.323C203.234 332.455 203.165 334.423 203.22 336.227C203.247 338.031 203.425 338.96 203.753 339.015ZM257.837 310.52C258.137 310.52 258.397 310.629 258.616 310.848C258.834 311.039 258.944 311.285 258.944 311.586C258.944 311.887 258.834 312.146 258.616 312.365C258.315 312.693 257.905 313.103 257.386 313.595C256.894 314.06 255.964 314.825 254.598 315.891C253.258 316.957 251.919 317.9 250.58 318.72C249.268 319.54 247.723 320.292 245.947 320.975C244.197 321.631 242.557 321.959 241.027 321.959C239.906 321.959 238.799 321.754 237.706 321.344C235.246 320.415 233.428 318.351 232.253 315.153C231.077 311.955 230.64 307.91 230.941 303.017C230.913 302.798 230.818 302.621 230.654 302.484C230.49 302.347 230.298 302.293 230.08 302.32C228.932 302.402 227.756 302.498 226.554 302.607C225.351 302.689 224.312 302.771 223.438 302.853C222.563 302.908 221.77 302.962 221.06 303.017C220.322 303.044 219.761 303.072 219.379 303.099C218.996 303.126 218.791 303.14 218.764 303.14H218.682C218.381 303.167 218.121 303.085 217.903 302.894C217.684 302.675 217.575 302.416 217.575 302.115C217.575 301.814 217.67 301.555 217.862 301.336C218.053 301.117 218.299 301.008 218.6 301.008C218.627 301.008 218.846 300.994 219.256 300.967C219.666 300.94 220.253 300.899 221.019 300.844C221.757 300.789 222.59 300.735 223.52 300.68C224.422 300.598 225.501 300.516 226.759 300.434C228.016 300.325 229.246 300.229 230.449 300.147C230.941 300.092 231.241 299.71 231.351 298.999C231.597 297.304 231.911 295.651 232.294 294.038C232.704 292.425 233.168 290.881 233.688 289.405C234.207 287.929 234.795 286.713 235.451 285.756C236.134 284.799 236.831 284.253 237.542 284.116C238.635 283.925 239.496 284.471 240.125 285.756C240.535 286.576 240.494 288.202 240.002 290.635C239.51 293.04 238.717 295.774 237.624 298.835C237.542 299.054 237.514 299.231 237.542 299.368C237.596 299.477 237.651 299.559 237.706 299.614C237.76 299.641 237.829 299.655 237.911 299.655C244.17 299.272 248.68 299.081 251.441 299.081C251.741 299.081 251.987 299.19 252.179 299.409C252.397 299.628 252.507 299.887 252.507 300.188C252.507 300.461 252.397 300.707 252.179 300.926C251.987 301.145 251.741 301.254 251.441 301.254C247.177 301.254 242.421 301.459 237.173 301.869C236.927 301.869 236.749 301.896 236.64 301.951C236.558 302.006 236.476 302.129 236.394 302.32C235.71 304.315 234.685 307.035 233.319 310.479C234.002 315.317 235.724 318.269 238.485 319.335C239.277 319.636 240.138 319.786 241.068 319.786C241.997 319.786 242.899 319.663 243.774 319.417C244.676 319.171 245.605 318.829 246.562 318.392C247.546 317.955 248.448 317.49 249.268 316.998C250.088 316.506 250.908 315.959 251.728 315.358C252.575 314.757 253.286 314.224 253.86 313.759C254.461 313.267 255.021 312.775 255.541 312.283C256.087 311.791 256.456 311.449 256.648 311.258C256.866 311.067 257.017 310.93 257.099 310.848C257.29 310.629 257.536 310.52 257.837 310.52ZM233.524 298.958C233.414 299.587 233.51 299.901 233.811 299.901C234.029 299.901 234.248 299.887 234.467 299.86C234.877 299.833 235.123 299.6 235.205 299.163C237.692 291.892 238.69 287.751 238.198 286.74C238.143 286.576 238.034 286.48 237.87 286.453C237.706 286.398 237.569 286.426 237.46 286.535C236.831 287.218 236.12 288.735 235.328 291.086C234.535 293.409 233.934 296.033 233.524 298.958ZM232.991 305.354C233.237 305.354 233.537 304.848 233.893 303.837C234.275 302.826 234.385 302.224 234.221 302.033C233.838 301.842 233.483 301.869 233.155 302.115C233.018 302.252 232.909 302.593 232.827 303.14C232.772 303.659 232.758 304.165 232.786 304.657C232.813 305.122 232.881 305.354 232.991 305.354Z" fill="white"></path><line x1="283" y1="310" x2="363" y2="310" stroke="white"></line></svg>