<svg xmlns="http://www.w3.org/2000/svg" width="855" height="191" viewBox="0 0 855 191" fill="none"><path d="M155.333 1.23637C136.533 4.43637 118.8 14.0364 103.2 29.6364C86.5333 46.303 80 61.7697 80 85.103C80 100.57 84 116.303 92 132.57C99.4667 147.636 108.133 157.636 122.667 167.903C140.667 180.703 149.067 183.103 173.467 182.17L190 181.636L177.333 184.703C161.067 188.703 136 190.17 121.733 187.77C110.267 185.903 95.0667 181.236 89.8667 177.77L86.5333 175.636L89.3333 172.17C94.5333 165.503 91.7333 151.77 83.8667 146.036C79.3333 142.836 75.3333 143.903 72.5333 149.37C69.6 154.97 71.2 162.57 76.8 169.77C81.0667 175.37 81.0667 175.77 78.5333 175.77C76.9333 175.77 69.8667 174.036 62.8 171.77C44.6667 166.303 32.4 164.57 23.7333 166.436C16.4 167.903 0 176.303 0 178.436C0 180.436 1.06667 180.036 7.06667 176.036C21.7333 166.036 34.5333 165.503 62 173.77C70.8 176.436 79.4667 178.303 81.0667 178.036C82.9333 177.636 87.4667 179.103 91.7333 181.236C116.533 193.503 160.267 194.17 193.333 182.703C213.2 175.77 224.533 168.836 240 154.036C247.333 146.97 250.4 142.57 255.333 132.836C263.733 115.37 265.867 106.303 264.933 89.103C263.333 55.7697 248 24.4364 227.467 12.4364C224.533 10.703 217.2 8.03636 211.333 6.5697C205.467 5.10303 197.067 2.96969 192.667 1.90302C184.267 -0.363644 166.533 -0.6303 155.333 1.23637ZM192 3.90302C195.733 4.70302 198.533 5.7697 198 6.1697C197.6 6.5697 190.267 6.9697 181.6 7.10304C167.2 7.23637 165.333 7.63637 158 11.2364C140.667 19.7697 127.2 37.6364 123.867 56.4364C123.2 60.8364 120.533 69.3697 118 75.2364C110.933 92.4364 108.933 104.036 109.6 122.836C110.267 138.436 111.867 146.17 118 160.436C119.733 164.57 109.6 155.37 103.467 147.236C86.5333 124.836 78.1333 90.303 83.8667 66.4364C90.6667 38.1697 116.533 13.903 149.333 4.96969C159.467 2.16969 181.6 1.63636 192 3.90302ZM173.333 12.703C157.2 20.0364 144 31.7697 132.533 48.9697C129.067 54.1697 126.133 58.4364 126 58.4364C124.8 58.4364 128.667 46.1697 131.467 40.4364C140.667 22.303 159.2 9.10303 175.333 9.23637L180.667 9.3697L173.333 12.703ZM223.333 13.103C233.067 17.7697 245.067 30.5697 250.933 42.4364C253.6 47.903 256.267 53.903 256.667 55.7697C257.467 58.9697 257.333 58.9697 254.533 55.103C245.333 42.703 228.133 30.4364 220 30.4364C217.6 30.4364 214.667 28.4364 210.667 24.303C207.333 20.9697 202.133 16.5697 199.067 14.5697C196 12.4364 193.867 10.303 194.4 9.76969C194.933 9.23636 200.133 9.10303 206 9.3697C213.867 9.63637 218.4 10.703 223.333 13.103ZM172.667 21.3697C161.867 32.303 158.4 39.3697 155.867 56.0364C153.467 71.7697 156.533 88.4364 165.333 107.236C175.067 128.303 187.067 143.103 204.267 155.503C209.867 159.503 214.8 163.636 215.2 164.57C217.867 171.636 182.133 182.303 161.333 180.703C150.533 179.77 139.467 176.97 135.467 174.036C133.6 172.703 135.867 172.836 144.8 174.703C164.133 178.57 178.667 177.636 178.667 172.436C178.667 171.37 172.8 164.57 165.733 157.37C151.067 142.836 143.2 130.703 134.533 109.77C128 93.6364 125.333 83.103 125.333 72.5697C125.333 65.903 126 63.6364 130.267 56.5697C142.8 35.7697 159.867 20.0364 176.8 13.903C179.733 12.8364 182.133 11.903 182.133 11.903C182.267 11.7697 178 16.1697 172.667 21.3697ZM194.8 14.5697C197.867 16.0364 202.933 20.0364 206.267 23.3697L212.4 29.3697L204.533 32.0364C189.733 36.9697 177.733 47.2364 172.8 58.8364C170.267 64.9697 167.333 79.6364 165.867 92.4364L164.933 101.77L161.733 91.7697C151.6 60.703 160.133 29.903 182.533 15.503C185.867 13.503 188.667 11.7697 188.933 11.7697C189.2 11.7697 191.867 12.9697 194.8 14.5697ZM217.867 37.7697C222.4 45.3697 228.667 64.5697 232 81.103C235.6 98.4364 235.6 98.4364 230.4 98.4364C228 98.4364 223.067 99.903 219.333 101.636C202.267 109.77 194.267 128.036 201.333 143.37C209.467 161.503 221.333 159.636 231.6 138.836C236.133 129.77 236.667 127.503 237.333 114.836L238 100.836L241.6 104.436C243.733 106.436 246 110.57 246.8 113.636C248.4 119.636 247.733 133.636 245.333 141.37C243.467 147.636 234.4 157.636 224.133 164.97C216.133 170.57 215.867 170.57 216.8 167.236C217.867 162.703 216.667 161.37 203.733 152.303C191.867 144.036 178.8 128.703 171.6 114.57C167.2 105.77 167.2 105.77 168.267 93.103C170.667 65.6364 177.067 50.4364 190 41.7697C195.6 38.1697 210 32.0364 213.6 31.7697C214 31.7697 216 34.4364 217.867 37.7697ZM230.933 36.8364C239.2 41.2364 252 54.703 256.667 63.7697C261.467 73.103 262.933 85.2364 261.2 99.6364C259.867 111.103 254.4 129.77 251.2 134.036C249.733 136.036 249.6 135.37 250.267 128.97C251.333 117.636 248.667 108.436 242.533 102.303C237.733 97.503 237.067 95.903 234.667 83.6364C231.333 66.4364 226.133 49.2364 221.2 39.3697L217.2 31.6364L220.933 32.5697C223.067 33.103 227.467 34.9697 230.933 36.8364ZM127.467 97.503C135.867 122.97 146.533 141.103 163.067 158.036C171.6 166.703 175.867 172.17 175.333 173.236C172.933 176.836 138.133 172.303 127.733 166.97C118.4 162.17 111.333 140.836 111.467 117.77C111.6 102.436 112.533 97.503 118.267 81.103L121.867 71.103L123.6 80.8364C124.4 86.303 126.267 93.7697 127.467 97.503ZM235.467 105.77C238.667 123.37 225.6 153.103 214.667 153.103C210.133 153.103 207.6 150.836 203.867 143.37C199.733 135.37 200.667 123.103 206.133 115.503C211.2 108.17 222.8 101.103 229.6 101.103C234.267 101.103 234.667 101.37 235.467 105.77ZM82.9333 147.903C84.4 148.703 86.8 152.036 88.2667 155.37C91.0667 161.636 90.8 165.903 87.2 171.503C84.6667 175.503 81.2 173.77 76.6667 165.903C72.9333 159.37 72.2667 151.636 75.4667 148.57C77.8667 146.036 79.2 145.903 82.9333 147.903Z" fill="black"></path><path d="M314.412 93.4438L334.049 42.3438H338.575L358.212 93.4438H352.883L343.831 69.4998H327.26L319.741 93.4438H314.412ZM334.56 46.1398L327.771 67.7478H343.174L334.998 46.1398H334.56ZM378.118 42.3438H383.082V73.1498C383.082 79.0385 384.517 83.6375 387.389 86.9468C390.309 90.2075 394.397 91.8378 399.653 91.8378C402.962 91.8378 405.833 91.2052 408.267 89.9398C410.749 88.6258 412.647 86.8252 413.961 84.5378C415.323 82.2505 415.956 79.6225 415.859 76.6538L414.618 42.3438H419.582L418.341 76.6538C418.146 82.4938 416.394 86.9225 413.085 89.9398C409.824 92.9572 405.152 94.4658 399.069 94.4658C392.499 94.4658 387.364 92.5678 383.666 88.7718C379.967 84.9272 378.118 79.6712 378.118 73.0038V42.3438ZM447.311 93.4438V42.3438H463.371C469.016 42.3438 473.931 43.4145 478.117 45.5558C482.302 47.6972 485.563 50.6902 487.899 54.5348C490.235 58.3308 491.403 62.7838 491.403 67.8938C491.403 73.0038 490.235 77.4812 487.899 81.3258C485.563 85.1218 482.302 88.0905 478.117 90.2318C473.931 92.3732 469.016 93.4438 463.371 93.4438H447.311ZM463.371 44.0958H452.275V91.6918H463.371C470.427 91.6918 475.927 89.5992 479.869 85.4138C483.859 81.2285 485.855 75.3885 485.855 67.8938C485.855 60.3992 483.859 54.5592 479.869 50.3738C475.927 46.1885 470.427 44.0958 463.371 44.0958ZM516.986 93.4438V42.3438H539.251V45.9208L526.476 44.2418C524.237 43.9498 522.728 43.8038 521.95 43.8038V66.0688C522.582 66.0688 524.091 65.9958 526.476 65.8498L538.448 65.1198V68.4778L526.476 67.7478C524.091 67.6018 522.582 67.5288 521.95 67.5288V91.9838C522.826 91.9838 524.359 91.8378 526.549 91.5458L539.47 89.8668V93.4438H516.986ZM564.989 42.3438H569.953V91.9838C570.878 91.9838 572.338 91.8378 574.333 91.5458L586.451 89.7208V93.4438H564.989V42.3438ZM597.355 42.3438H602.684L620.569 87.0198H621.007L632.687 58.1118L626.336 42.3438H631.665L649.477 86.8738H649.915L664.661 42.3438H669.99L648.966 94.4658H647.36L633.709 60.5208L619.985 94.4658H618.379L597.355 42.3438ZM691.578 93.4438V42.3438H713.843V45.9208L701.068 44.2418C698.83 43.9498 697.321 43.8038 696.542 43.8038V66.0688C697.175 66.0688 698.684 65.9958 701.068 65.8498L713.04 65.1198V68.4778L701.068 67.7478C698.684 67.6018 697.175 67.5288 696.542 67.5288V91.9838C697.418 91.9838 698.951 91.8378 701.141 91.5458L714.062 89.8668V93.4438H691.578ZM739.582 93.4438V42.3438H744.546V93.4438H739.582ZM769.302 91.8378L769.74 87.4578H770.178C772.076 89.1125 774.217 90.4022 776.602 91.3268C778.986 92.2515 781.347 92.7138 783.683 92.7138C786.992 92.7138 789.669 91.8135 791.713 90.0128C793.757 88.1635 794.779 85.7058 794.779 82.6398C794.779 80.9365 794.389 79.3548 793.611 77.8948C792.881 76.4348 791.64 74.9505 789.888 73.4418C788.184 71.9332 785.824 70.3028 782.807 68.5508C780.714 67.3342 778.719 66.0688 776.821 64.7548C774.923 63.3922 773.365 61.8348 772.149 60.0828C770.932 58.2822 770.324 56.1408 770.324 53.6588C770.324 49.9602 771.662 46.9915 774.339 44.7528C777.015 42.4655 780.544 41.3218 784.924 41.3218C786.87 41.3218 788.963 41.5408 791.202 41.9788C793.44 42.3682 795.168 42.8792 796.385 43.5118L796.02 47.5998H795.582C792.808 44.5825 789.255 43.0738 784.924 43.0738C781.809 43.0738 779.303 43.8768 777.405 45.4828C775.507 47.0402 774.558 49.1572 774.558 51.8338C774.558 53.8292 775.069 55.5568 776.091 57.0168C777.161 58.4282 778.524 59.7178 780.179 60.8858C781.833 62.0052 783.61 63.1002 785.508 64.1708C787.698 65.4362 789.815 66.7745 791.859 68.1858C793.951 69.5972 795.655 71.3005 796.969 73.2958C798.331 75.2425 799.013 77.7002 799.013 80.6688C799.013 83.3942 798.38 85.8032 797.115 87.8958C795.849 89.9398 794.049 91.5458 791.713 92.7138C789.425 93.8818 786.749 94.4658 783.683 94.4658C781.736 94.4658 779.449 94.2225 776.821 93.7358C774.193 93.2492 771.686 92.6165 769.302 91.8378ZM819.158 91.8378L819.596 87.4578H820.034C821.932 89.1125 824.074 90.4022 826.458 91.3268C828.843 92.2515 831.203 92.7138 833.539 92.7138C836.849 92.7138 839.525 91.8135 841.569 90.0128C843.613 88.1635 844.635 85.7058 844.635 82.6398C844.635 80.9365 844.246 79.3548 843.467 77.8948C842.737 76.4348 841.496 74.9505 839.744 73.4418C838.041 71.9332 835.681 70.3028 832.663 68.5508C830.571 67.3342 828.575 66.0688 826.677 64.7548C824.779 63.3922 823.222 61.8348 822.005 60.0828C820.789 58.2822 820.18 56.1408 820.18 53.6588C820.18 49.9602 821.519 46.9915 824.195 44.7528C826.872 42.4655 830.4 41.3218 834.78 41.3218C836.727 41.3218 838.82 41.5408 841.058 41.9788C843.297 42.3682 845.025 42.8792 846.241 43.5118L845.876 47.5998H845.438C842.664 44.5825 839.112 43.0738 834.78 43.0738C831.666 43.0738 829.159 43.8768 827.261 45.4828C825.363 47.0402 824.414 49.1572 824.414 51.8338C824.414 53.8292 824.925 55.5568 825.947 57.0168C827.018 58.4282 828.381 59.7178 830.035 60.8858C831.69 62.0052 833.466 63.1002 835.364 64.1708C837.554 65.4362 839.671 66.7745 841.715 68.1858C843.808 69.5972 845.511 71.3005 846.825 73.2958C848.188 75.2425 848.869 77.7002 848.869 80.6688C848.869 83.3942 848.237 85.8032 846.971 87.8958C845.706 89.9398 843.905 91.5458 841.569 92.7138C839.282 93.8818 836.605 94.4658 833.539 94.4658C831.593 94.4658 829.305 94.2225 826.677 93.7358C824.049 93.2492 821.543 92.6165 819.158 91.8378Z" fill="black"></path><line x1="312.136" y1="137.444" x2="481.636" y2="137.444" stroke="black"></line><path d="M541.909 138.866C542.21 138.866 542.456 138.975 542.647 139.194C542.866 139.413 542.961 139.672 542.934 139.973C542.934 140.274 542.811 140.52 542.565 140.711C539.23 143.499 535.513 145.645 531.413 147.148C527.313 148.651 523.076 149.417 518.703 149.444C516.571 149.444 514.453 149.253 512.348 148.87C511.118 148.651 510.079 148.337 509.232 147.927C508.385 147.49 507.77 147.011 507.387 146.492C506.977 145.973 506.704 145.494 506.567 145.057C506.403 144.592 506.321 144.128 506.321 143.663C506.321 142.296 506.84 140.889 507.879 139.44C508.89 137.964 510.093 136.734 511.487 135.75C512.908 134.766 514.22 134.151 515.423 133.905C517.09 133.44 518.594 133.727 519.933 134.766C521.054 135.832 521.614 137.144 521.614 138.702C521.587 139.003 521.464 139.262 521.245 139.481C521.054 139.672 520.808 139.768 520.507 139.768C520.206 139.768 519.947 139.659 519.728 139.44C519.537 139.221 519.441 138.962 519.441 138.661C519.468 137.786 519.168 137.035 518.539 136.406C517.692 135.859 516.79 135.736 515.833 136.037C514.33 136.31 512.717 137.308 510.995 139.03C509.3 140.725 508.453 142.269 508.453 143.663C508.48 145.221 509.902 146.26 512.717 146.779C514.466 147.08 516.229 147.244 518.006 147.271C519.81 147.298 521.45 147.216 522.926 147.025C524.429 146.806 525.919 146.506 527.395 146.123C528.871 145.74 530.183 145.317 531.331 144.852C532.479 144.387 533.586 143.882 534.652 143.335C535.745 142.761 536.647 142.255 537.358 141.818C538.096 141.381 538.779 140.93 539.408 140.465C540.037 140 540.46 139.686 540.679 139.522C540.898 139.331 541.048 139.194 541.13 139.112C541.349 138.921 541.608 138.839 541.909 138.866ZM575.52 138.333C575.821 138.333 576.067 138.442 576.258 138.661C576.477 138.88 576.586 139.139 576.586 139.44C576.586 139.713 576.477 139.959 576.258 140.178C573.607 142.747 570.34 144.729 566.459 146.123C562.578 147.49 559.024 148.173 555.799 148.173C554.241 148.255 552.738 147.968 551.289 147.312C550.66 146.957 550.155 146.56 549.772 146.123C549.389 145.686 549.143 145.221 549.034 144.729C548.925 144.21 548.856 143.745 548.829 143.335C548.829 142.925 548.925 142.46 549.116 141.941C549.307 141.394 549.458 140.984 549.567 140.711C549.704 140.41 549.881 140.041 550.1 139.604C550.182 139.44 550.114 139.344 549.895 139.317C549.786 139.317 549.635 139.372 549.444 139.481C547.941 140.301 546.328 140.67 544.606 140.588C543.841 140.615 543.089 140.465 542.351 140.137C542.078 140.219 541.804 140.192 541.531 140.055C541.094 139.836 540.902 139.481 540.957 138.989C540.547 138.497 540.26 137.937 540.096 137.308C539.768 136.187 539.795 135.08 540.178 133.987C540.561 132.894 541.23 131.992 542.187 131.281C543.335 130.598 544.237 130.57 544.893 131.199C545.795 132.046 545.494 134.165 543.991 137.554C543.936 137.691 543.977 137.882 544.114 138.128C544.251 138.347 544.415 138.456 544.606 138.456C546.191 138.456 547.681 138.06 549.075 137.267C549.485 137.021 549.813 136.857 550.059 136.775C550.305 136.666 550.633 136.625 551.043 136.652C551.453 136.652 551.836 136.789 552.191 137.062C552.546 137.335 552.738 137.691 552.765 138.128C552.792 138.565 552.738 138.948 552.601 139.276C552.492 139.577 552.3 140 552.027 140.547C551.344 141.804 551.002 142.816 551.002 143.581C551.029 144.319 551.494 144.948 552.396 145.467C552.943 145.795 553.831 145.986 555.061 146.041C556.291 146.096 557.74 145.986 559.407 145.713C561.074 145.44 562.796 145.03 564.573 144.483C566.35 143.936 568.154 143.157 569.985 142.146C571.816 141.107 573.402 139.932 574.741 138.62C574.96 138.429 575.219 138.333 575.52 138.333ZM542.105 136.406C542.597 135.367 542.98 134.288 543.253 133.167C542.242 134.042 541.859 135.121 542.105 136.406ZM607.086 139.153C607.387 139.153 607.633 139.262 607.824 139.481C608.015 139.7 608.097 139.959 608.07 140.26C608.07 140.561 607.961 140.807 607.742 140.998C607.496 141.217 607.168 141.504 606.758 141.859C606.375 142.187 605.665 142.734 604.626 143.499C603.587 144.264 602.535 144.961 601.469 145.59C600.403 146.219 599.146 146.847 597.697 147.476C596.248 148.077 594.854 148.501 593.515 148.747C592.176 148.993 590.768 149.02 589.292 148.829C587.816 148.61 586.463 148.105 585.233 147.312C584.085 146.574 583.169 145.617 582.486 144.442C582.295 144.114 581.994 143.936 581.584 143.909C581.201 143.882 580.901 144.032 580.682 144.36C579.725 145.836 578.673 147.08 577.525 148.091C576.404 149.102 575.366 149.622 574.409 149.649H574.368C573.876 149.622 573.425 149.471 573.015 149.198C572.578 148.897 572.263 148.515 572.072 148.05C571.252 146 571.375 144.005 572.441 142.064C573.343 140.178 574.6 138.579 576.213 137.267C577.853 135.928 579.698 135.012 581.748 134.52C582.158 134.411 582.5 134.506 582.773 134.807C583.074 135.108 583.156 135.463 583.019 135.873C582.91 136.256 582.65 136.502 582.24 136.611C580.518 137.021 578.974 137.786 577.607 138.907C576.24 140 575.174 141.353 574.409 142.966C573.644 144.278 573.507 145.645 573.999 147.066C574.163 147.339 574.286 147.476 574.368 147.476C574.833 147.777 575.735 146.929 577.074 144.934C578.413 142.939 579.616 140.779 580.682 138.456C580.901 137.964 581.283 137.759 581.83 137.841C582.349 137.923 582.65 138.224 582.732 138.743C582.759 138.88 582.787 139.071 582.814 139.317C582.869 139.536 582.992 139.959 583.183 140.588C583.374 141.189 583.593 141.763 583.839 142.31C584.085 142.857 584.44 143.444 584.905 144.073C585.37 144.674 585.875 145.153 586.422 145.508C587.461 146.191 588.622 146.601 589.907 146.738C591.219 146.875 592.463 146.806 593.638 146.533C594.841 146.26 596.098 145.836 597.41 145.262C598.722 144.661 599.856 144.059 600.813 143.458C601.77 142.857 602.713 142.214 603.642 141.531C604.571 140.848 605.2 140.369 605.528 140.096C605.883 139.795 606.143 139.563 606.307 139.399C606.526 139.208 606.785 139.126 607.086 139.153ZM633.023 138.415C633.324 138.415 633.57 138.524 633.761 138.743C633.98 138.962 634.089 139.221 634.089 139.522C634.089 139.823 633.98 140.069 633.761 140.26C630.837 143.075 625.903 144.251 618.96 143.786C615.626 143.54 612.359 142.925 609.161 141.941C608.833 141.832 608.574 141.859 608.382 142.023C608.191 142.16 608.109 142.406 608.136 142.761C608.191 143.444 608.273 144.278 608.382 145.262C608.546 147.121 608.683 148.733 608.792 150.1C608.902 151.467 608.997 152.956 609.079 154.569C609.161 156.209 609.189 157.617 609.161 158.792C609.161 159.967 609.093 161.143 608.956 162.318C608.847 163.521 608.669 164.518 608.423 165.311C608.177 166.104 607.849 166.787 607.439 167.361C607.029 167.935 606.537 168.331 605.963 168.55C605.745 168.632 605.526 168.673 605.307 168.673C604.815 168.673 604.392 168.509 604.036 168.181C603.408 167.58 603.025 166.322 602.888 164.409C602.724 162.496 602.779 160.241 603.052 157.644C603.326 155.075 603.708 152.423 604.2 149.69C604.692 146.984 605.253 144.36 605.881 141.818C605.881 141.763 605.881 141.709 605.881 141.654C605.799 140.588 605.813 139.877 605.922 139.522C606.004 139.139 606.209 138.866 606.537 138.702C606.565 138.511 606.647 138.333 606.783 138.169L606.865 138.087C609.107 130.297 611.375 125.76 613.671 124.475C614.355 124.065 615.079 123.969 615.844 124.188C616.582 124.379 617.061 124.844 617.279 125.582C617.443 126.265 617.279 127.181 616.787 128.329C616.323 129.45 615.612 130.68 614.655 132.019C613.699 133.331 612.797 134.506 611.949 135.545C611.129 136.556 610.255 137.568 609.325 138.579C609.025 138.88 608.888 139.126 608.915 139.317C608.97 139.508 609.216 139.686 609.653 139.85C610.993 140.287 612.605 140.67 614.491 140.998C616.405 141.326 618.482 141.558 620.723 141.695C622.992 141.832 625.179 141.654 627.283 141.162C629.415 140.67 631.069 139.864 632.244 138.743C632.463 138.524 632.723 138.415 633.023 138.415ZM614.696 126.361C614.095 126.853 612.988 128.479 611.375 131.24C610.173 133.29 609.776 134.233 610.186 134.069C610.296 134.014 610.487 133.837 610.76 133.536C611.498 132.798 612.25 131.855 613.015 130.707C613.781 129.532 614.368 128.507 614.778 127.632C615.216 126.73 615.352 126.238 615.188 126.156C615.106 126.129 615.024 126.129 614.942 126.156C614.888 126.183 614.833 126.224 614.778 126.279L614.696 126.361ZM605.389 166.459C605.854 166.514 606.237 165.106 606.537 162.236C606.838 159.393 606.975 156.51 606.947 153.585C606.92 150.688 606.77 149.239 606.496 149.239C606.278 149.239 606.032 150.127 605.758 151.904C605.458 153.681 605.225 155.635 605.061 157.767C604.87 159.899 604.802 161.867 604.856 163.671C604.884 165.475 605.061 166.404 605.389 166.459ZM659.473 137.964C659.774 137.964 660.033 138.073 660.252 138.292C660.471 138.483 660.58 138.729 660.58 139.03C660.58 139.331 660.471 139.59 660.252 139.809C659.951 140.137 659.541 140.547 659.022 141.039C658.53 141.504 657.601 142.269 656.234 143.335C654.895 144.401 653.555 145.344 652.216 146.164C650.904 146.984 649.36 147.736 647.583 148.419C645.834 149.075 644.194 149.403 642.663 149.403C641.542 149.403 640.435 149.198 639.342 148.788C636.882 147.859 635.064 145.795 633.889 142.597C632.714 139.399 632.276 135.354 632.577 130.461C632.55 130.242 632.454 130.065 632.29 129.928C632.126 129.791 631.935 129.737 631.716 129.764C630.568 129.846 629.393 129.942 628.19 130.051C626.987 130.133 625.949 130.215 625.074 130.297C624.199 130.352 623.407 130.406 622.696 130.461C621.958 130.488 621.398 130.516 621.015 130.543C620.632 130.57 620.427 130.584 620.4 130.584H620.318C620.017 130.611 619.758 130.529 619.539 130.338C619.32 130.119 619.211 129.86 619.211 129.559C619.211 129.258 619.307 128.999 619.498 128.78C619.689 128.561 619.935 128.452 620.236 128.452C620.263 128.452 620.482 128.438 620.892 128.411C621.302 128.384 621.89 128.343 622.655 128.288C623.393 128.233 624.227 128.179 625.156 128.124C626.058 128.042 627.138 127.96 628.395 127.878C629.652 127.769 630.882 127.673 632.085 127.591C632.577 127.536 632.878 127.154 632.987 126.443C633.233 124.748 633.547 123.095 633.93 121.482C634.34 119.869 634.805 118.325 635.324 116.849C635.843 115.373 636.431 114.157 637.087 113.2C637.77 112.243 638.467 111.697 639.178 111.56C640.271 111.369 641.132 111.915 641.761 113.2C642.171 114.02 642.13 115.646 641.638 118.079C641.146 120.484 640.353 123.218 639.26 126.279C639.178 126.498 639.151 126.675 639.178 126.812C639.233 126.921 639.287 127.003 639.342 127.058C639.397 127.085 639.465 127.099 639.547 127.099C645.806 126.716 650.316 126.525 653.077 126.525C653.378 126.525 653.624 126.634 653.815 126.853C654.034 127.072 654.143 127.331 654.143 127.632C654.143 127.905 654.034 128.151 653.815 128.37C653.624 128.589 653.378 128.698 653.077 128.698C648.813 128.698 644.057 128.903 638.809 129.313C638.563 129.313 638.385 129.34 638.276 129.395C638.194 129.45 638.112 129.573 638.03 129.764C637.347 131.759 636.322 134.479 634.955 137.923C635.638 142.761 637.36 145.713 640.121 146.779C640.914 147.08 641.775 147.23 642.704 147.23C643.633 147.23 644.535 147.107 645.41 146.861C646.312 146.615 647.241 146.273 648.198 145.836C649.182 145.399 650.084 144.934 650.904 144.442C651.724 143.95 652.544 143.403 653.364 142.802C654.211 142.201 654.922 141.668 655.496 141.203C656.097 140.711 656.658 140.219 657.177 139.727C657.724 139.235 658.093 138.893 658.284 138.702C658.503 138.511 658.653 138.374 658.735 138.292C658.926 138.073 659.172 137.964 659.473 137.964ZM635.16 126.402C635.051 127.031 635.146 127.345 635.447 127.345C635.666 127.345 635.884 127.331 636.103 127.304C636.513 127.277 636.759 127.044 636.841 126.607C639.328 119.336 640.326 115.195 639.834 114.184C639.779 114.02 639.67 113.924 639.506 113.897C639.342 113.842 639.205 113.87 639.096 113.979C638.467 114.662 637.757 116.179 636.964 118.53C636.171 120.853 635.57 123.477 635.16 126.402ZM634.627 132.798C634.873 132.798 635.174 132.292 635.529 131.281C635.912 130.27 636.021 129.668 635.857 129.477C635.474 129.286 635.119 129.313 634.791 129.559C634.654 129.696 634.545 130.037 634.463 130.584C634.408 131.103 634.395 131.609 634.422 132.101C634.449 132.566 634.518 132.798 634.627 132.798Z" fill="black"></path><line x1="684.636" y1="137.444" x2="854.136" y2="137.444" stroke="black"></line></svg>