<svg viewBox="0 0 50 40" xmlns="http://www.w3.org/2000/svg">
  <g transform="translate(11.5, 6)">
    <path d="M2.49145 2.55321C3.14526 2.23577 3.60883 2.383 4.03834 2.82981C10.9227 9.93733 17.8136 17.0375 24.7112 24.1302C25.2579 24.6928 25.267 25.3498 24.7378 25.8911C24.2086 26.4324 23.5647 26.4204 23.0181 25.8579C16.126 18.76 9.23065 11.665 2.33194 4.57279C1.90077 4.12938 1.75954 3.65364 2.06859 2.98555L2.49145 2.55321Z" />
    <path d="M24.5434 2.59227C23.8896 2.27483 23.4261 2.42206 22.9974 2.86887C16.1147 9.97752 9.22407 17.0779 2.32537 24.1701C1.77872 24.7327 1.76875 25.3897 2.29878 25.931C2.82881 26.4723 3.471 26.4595 4.01764 25.8978C10.9108 18.7999 17.8062 11.7049 24.7038 4.6127C25.1358 4.1693 25.2762 3.6927 24.9671 3.02547L24.5434 2.59227Z" />
  </g>
</svg>
